<svg width="143" height="32" viewBox="0 0 143 32" fill="none" xmlns="http://www.w3.org/2000/svg">
<path d="M8.0127 30V29.4527C8.87915 29.4335 9.6012 29.2222 10.1788 28.8189C10.7757 28.4156 11.2186 27.7434 11.5074 26.8025C11.8155 25.8807 11.9695 24.642 11.9695 23.0864V7.2428C11.9695 6.53224 11.9118 6.01373 11.7962 5.68724C11.6807 5.34156 11.4496 5.11111 11.1031 4.99589C10.7757 4.86146 10.2847 4.78463 9.63008 4.76543V4.1893C10.0344 4.2085 10.5639 4.22772 11.2186 4.24691C11.8732 4.26611 12.5568 4.27572 13.2692 4.27572C13.9816 4.27572 14.6652 4.26611 15.3198 4.24691C15.9937 4.22772 16.5521 4.2085 16.995 4.1893V4.76543C16.3403 4.78463 15.8397 4.86146 15.4931 4.99589C15.1658 5.11111 14.9444 5.34156 14.8288 5.68724C14.7133 6.01373 14.6555 6.53224 14.6555 7.2428V17.786C14.6555 18.5734 14.6459 19.428 14.6267 20.3498C14.6074 21.2716 14.5593 22.1646 14.4823 23.0288C14.4245 23.893 14.3186 24.6517 14.1646 25.3045C13.8372 26.6488 13.144 27.7628 12.0851 28.6461C11.0453 29.5488 9.68785 30 8.0127 30ZM31.5659 9.4321V21.4733C31.5659 22.3375 31.72 22.9808 32.028 23.4033C32.3554 23.8066 32.9331 24.0082 33.761 24.0082V24.6132C33.1641 24.5556 32.5671 24.5268 31.9703 24.5268C31.4118 24.5268 30.8728 24.5556 30.3529 24.6132C29.8523 24.6708 29.3901 24.7763 28.9665 24.93V21.5309C28.4852 22.7792 27.8016 23.6722 26.9159 24.2099C26.0495 24.7284 25.1541 24.9877 24.2299 24.9877C23.556 24.9877 22.9687 24.8916 22.4681 24.6996C21.9675 24.5076 21.5535 24.2387 21.2262 23.893C20.8604 23.5089 20.61 23.0096 20.4753 22.3951C20.3405 21.7805 20.2731 21.022 20.2731 20.1193V12.8889C20.2731 12.0247 20.119 11.3909 19.811 10.9877C19.5029 10.5652 18.9253 10.3539 18.0781 10.3539V9.74897C18.6942 9.80659 19.2911 9.83539 19.8687 9.83539C20.4271 9.83539 20.9566 9.80659 21.4572 9.74897C21.9771 9.67216 22.4489 9.56652 22.8725 9.4321V20.7531C22.8725 21.3484 22.911 21.8957 22.988 22.3951C23.065 22.8944 23.2576 23.2977 23.5656 23.6049C23.8737 23.9122 24.3743 24.0658 25.0675 24.0658C25.8184 24.0658 26.4827 23.8354 27.0603 23.3745C27.6572 22.9136 28.1193 22.2894 28.4467 21.5021C28.7933 20.7147 28.9665 19.8313 28.9665 18.8519V12.8889C28.9665 12.0247 28.8125 11.3909 28.5044 10.9877C28.1964 10.5652 27.6187 10.3539 26.7715 10.3539V9.74897C27.3877 9.80659 27.9846 9.83539 28.5622 9.83539C29.1206 9.83539 29.6501 9.80659 30.1507 9.74897C30.6706 9.67216 31.1424 9.56652 31.5659 9.4321ZM39.3367 24.786C38.5472 24.786 37.8638 24.642 37.2861 24.3539C36.7085 24.0466 36.2656 23.6241 35.9576 23.0864C35.6687 22.5487 35.5243 21.9245 35.5243 21.214C35.5243 20.369 35.7168 19.6776 36.102 19.1399C36.5063 18.6022 37.0165 18.1701 37.6327 17.8436C38.2489 17.5171 38.8938 17.2483 39.5678 17.037C40.261 16.8066 40.9156 16.5953 41.5318 16.4033C42.148 16.192 42.6485 15.952 43.0336 15.6831C43.438 15.4143 43.6402 15.059 43.6402 14.6173V12.8313C43.6402 12.0247 43.5149 11.4101 43.2647 10.9877C43.0336 10.5652 42.7159 10.2867 42.3116 10.1523C41.9072 9.99862 41.4548 9.92181 40.9541 9.92181C40.4728 9.92181 39.953 9.98903 39.3945 10.1235C38.8555 10.2579 38.4222 10.5364 38.0948 10.9588C38.4606 11.0357 38.7783 11.2277 39.0479 11.535C39.3176 11.8422 39.4523 12.2359 39.4523 12.7161C39.4523 13.1962 39.2982 13.5802 38.9902 13.8683C38.6822 14.1372 38.2873 14.2716 37.806 14.2716C37.2475 14.2716 36.8337 14.0988 36.5641 13.7531C36.3138 13.3882 36.1886 12.9849 36.1886 12.5432C36.1886 12.0439 36.3138 11.6406 36.5641 11.3333C36.8143 11.0261 37.132 10.738 37.5172 10.4691C37.9601 10.1619 38.5281 9.90262 39.2212 9.69136C39.9336 9.46091 40.7328 9.34568 41.6184 9.34568C42.4079 9.34568 43.0817 9.44171 43.6402 9.63375C44.1986 9.80659 44.6607 10.0658 45.0265 10.4115C45.5272 10.8724 45.8544 11.439 46.0085 12.1111C46.1626 12.7641 46.2395 13.5514 46.2395 14.4733V22.4815C46.2395 22.9616 46.307 23.3073 46.4417 23.5185C46.5958 23.7298 46.8269 23.8354 47.1349 23.8354C47.3467 23.8354 47.5489 23.7874 47.7414 23.6914C47.9339 23.5953 48.1649 23.4417 48.4346 23.2305L48.7523 23.7202C48.3479 24.0274 47.9627 24.2867 47.597 24.4979C47.2312 24.6899 46.7402 24.786 46.124 24.786C45.5655 24.786 45.1034 24.6899 44.7377 24.4979C44.3719 24.3059 44.0926 24.0274 43.9001 23.6626C43.7268 23.2785 43.6402 22.7984 43.6402 22.2222C43.1203 23.0864 42.4946 23.7298 41.7628 24.1523C41.0505 24.5747 40.2418 24.786 39.3367 24.786ZM40.3765 23.6337C41.0119 23.6337 41.5992 23.4513 42.1383 23.0864C42.6968 22.7215 43.1972 22.1742 43.6402 21.4444V15.7984C43.4091 16.1248 43.0722 16.4033 42.6293 16.6337C42.1864 16.845 41.7051 17.0658 41.1852 17.2963C40.6653 17.5076 40.1646 17.7668 39.6833 18.0741C39.2212 18.3621 38.8361 18.7462 38.5281 19.2263C38.2201 19.7064 38.0659 20.3306 38.0659 21.0988C38.0659 21.8669 38.2681 22.4815 38.6725 22.9424C39.096 23.4033 39.6642 23.6337 40.3765 23.6337ZM59.3244 9.34568C60.0562 9.34568 60.6627 9.44171 61.144 9.63375C61.6447 9.82578 62.0585 10.0947 62.3859 10.4403C62.7517 10.8244 63.0116 11.3045 63.1657 11.8807C63.3198 12.4568 63.3968 13.2346 63.3968 14.214V21.9053C63.3968 22.7119 63.5604 23.2593 63.8878 23.5473C64.2343 23.8354 64.8023 23.9794 65.5918 23.9794V24.5844C65.2644 24.5652 64.7639 24.5459 64.0899 24.5268C63.4159 24.4883 62.7614 24.4691 62.126 24.4691C61.4906 24.4691 60.8649 24.4883 60.2486 24.5268C59.6518 24.5459 59.1992 24.5652 58.8912 24.5844V23.9794C59.5843 23.9794 60.0753 23.8354 60.3642 23.5473C60.653 23.2593 60.7974 22.7119 60.7974 21.9053V13.5802C60.7974 12.9849 60.7493 12.4376 60.653 11.9383C60.5566 11.439 60.3353 11.0357 59.9887 10.7284C59.6613 10.4211 59.1511 10.2675 58.458 10.2675C57.6493 10.2675 56.9369 10.4979 56.3207 10.9588C55.7239 11.4198 55.2521 12.0535 54.9055 12.8601C54.5781 13.6475 54.4145 14.5309 54.4145 15.5103V21.9053C54.4145 22.7119 54.5589 23.2593 54.8477 23.5473C55.1365 23.8354 55.6275 23.9794 56.3207 23.9794V24.5844C56.0127 24.5652 55.5506 24.5459 54.9344 24.5268C54.3375 24.4883 53.7213 24.4691 53.0859 24.4691C52.4505 24.4691 51.7959 24.4883 51.1219 24.5268C50.4479 24.5459 49.9475 24.5652 49.6201 24.5844V23.9794C50.4096 23.9794 50.9678 23.8354 51.2952 23.5473C51.6418 23.2593 51.8151 22.7119 51.8151 21.9053V12.8889C51.8151 12.0247 51.661 11.3909 51.353 10.9877C51.045 10.5652 50.4674 10.3539 49.6201 10.3539V9.74897C50.2363 9.80659 50.8331 9.83539 51.4108 9.83539C51.9692 9.83539 52.4986 9.80659 52.9993 9.74897C53.5191 9.67216 53.991 9.56652 54.4145 9.4321V12.8313C54.9152 11.5254 55.6083 10.6228 56.494 10.1235C57.399 9.60494 58.3424 9.34568 59.3244 9.34568ZM77.9194 8.1214C77.9194 9.0072 78.136 9.77418 78.5693 10.4223C79.0242 11.0489 79.5982 11.5998 80.2914 12.0751C80.9845 12.5504 81.721 13.0257 82.5008 13.501C83.3023 13.9547 84.0713 14.4408 84.8078 14.9594C85.5659 15.4779 86.1833 16.0936 86.6598 16.8066C87.158 17.5195 87.4071 18.3945 87.4071 19.4316C87.4071 20.4686 87.1472 21.4084 86.6273 22.251C86.1075 23.072 85.3493 23.731 84.3529 24.2279C83.3781 24.7248 82.1651 24.9733 80.7138 24.9733C80.1939 24.9733 79.674 24.93 79.1541 24.8436C78.6559 24.7788 78.1469 24.66 77.627 24.4871C77.1288 24.3143 76.6306 24.0983 76.1323 23.839C76.024 23.7742 75.9482 23.6986 75.9049 23.6121C75.8832 23.5041 75.8616 23.3745 75.8399 23.2233L75.4175 18.8158C75.3959 18.7078 75.4392 18.6538 75.5475 18.6538C75.6775 18.6322 75.7533 18.6646 75.7749 18.751C75.9266 19.3992 76.1432 20.0581 76.4248 20.7279C76.7064 21.3976 77.0746 22.0134 77.5295 22.5751C77.9844 23.1368 78.5368 23.5905 79.1866 23.9362C79.8365 24.2819 80.5946 24.4547 81.4611 24.4547C82.0892 24.4547 82.6958 24.3359 83.2806 24.0983C83.8872 23.8606 84.3745 23.4717 84.7428 22.9316C85.1327 22.3915 85.3276 21.6569 85.3276 20.7279C85.3276 19.6692 85.0894 18.7942 84.6128 18.1029C84.1579 17.3899 83.5731 16.7742 82.8582 16.2557C82.1434 15.7371 81.3853 15.251 80.5838 14.7973C79.8256 14.322 79.0891 13.8359 78.3743 13.339C77.6811 12.8421 77.1071 12.2587 76.6522 11.589C76.219 10.8976 76.0024 10.0442 76.0024 9.02881C76.0024 7.88375 76.2948 6.94393 76.8797 6.20936C77.4645 5.45319 78.2227 4.89146 79.1541 4.52418C80.0856 4.15689 81.0495 3.97325 82.0459 3.97325C82.6525 3.97325 83.2806 4.03806 83.9305 4.1677C84.5803 4.27572 85.2193 4.47017 85.8475 4.75103C86.0208 4.81584 86.1399 4.90226 86.2049 5.01029C86.2916 5.09671 86.3349 5.19393 86.3349 5.30196L86.5623 8.9964C86.5623 9.08282 86.5082 9.13683 86.3999 9.15844C86.2916 9.15844 86.2158 9.11523 86.1724 9.02881C86.1291 8.59671 86.01 8.1214 85.815 7.60288C85.6201 7.06276 85.3385 6.55504 84.9702 6.07973C84.602 5.60442 84.1363 5.21554 83.5731 4.91307C83.0099 4.6106 82.3275 4.45936 81.5261 4.45936C80.6813 4.45936 79.9881 4.64301 79.4466 5.01029C78.9267 5.35597 78.5368 5.80967 78.2768 6.3714C78.0386 6.91152 77.9194 7.49486 77.9194 8.1214ZM93.2986 2.54732C93.7993 2.54732 94.2325 2.72977 94.5983 3.09465C94.9643 3.45953 95.1471 3.89163 95.1471 4.39095C95.1471 4.89027 94.9643 5.32237 94.5983 5.68724C94.2325 6.05212 93.7993 6.23457 93.2986 6.23457C92.7981 6.23457 92.3649 6.05212 91.9989 5.68724C91.6332 5.32237 91.4502 4.89027 91.4502 4.39095C91.4502 3.89163 91.6332 3.45953 91.9989 3.09465C92.3649 2.72977 92.7981 2.54732 93.2986 2.54732ZM94.8005 9.4321V21.9053C94.8005 22.7119 94.9643 23.2593 95.2915 23.5473C95.638 23.8354 96.2062 23.9794 96.9955 23.9794V24.5844C96.6683 24.5652 96.1676 24.5459 95.4936 24.5268C94.8391 24.4883 94.1748 24.4691 93.5008 24.4691C92.8462 24.4691 92.1819 24.4883 91.5079 24.5268C90.8342 24.5459 90.3335 24.5652 90.0061 24.5844V23.9794C90.7956 23.9794 91.354 23.8354 91.6812 23.5473C92.0278 23.2593 92.2011 22.7119 92.2011 21.9053V12.8889C92.2011 12.0247 92.0472 11.3909 91.739 10.9877C91.431 10.5652 90.8533 10.3539 90.0061 10.3539V9.74897C90.6223 9.80659 91.2191 9.83539 91.7967 9.83539C92.3552 9.83539 92.8848 9.80659 93.3853 9.74897C93.9051 9.67216 94.3769 9.56652 94.8005 9.4321ZM103.06 2V21.9053C103.06 22.7119 103.224 23.2593 103.551 23.5473C103.897 23.8354 104.466 23.9794 105.255 23.9794V24.5844C104.928 24.5652 104.427 24.5459 103.753 24.5268C103.098 24.4883 102.434 24.4691 101.76 24.4691C101.106 24.4691 100.441 24.4883 99.7673 24.5268C99.0935 24.5459 98.5928 24.5652 98.2654 24.5844V23.9794C99.0549 23.9794 99.6134 23.8354 99.9406 23.5473C100.287 23.2593 100.46 22.7119 100.46 21.9053V5.45679C100.46 4.59259 100.307 3.95885 99.9983 3.55556C99.6903 3.13306 99.1127 2.92181 98.2654 2.92181V2.31687C98.8816 2.37448 99.4784 2.40329 100.056 2.40329C100.615 2.40329 101.144 2.37448 101.645 2.31687C102.164 2.24005 102.636 2.13443 103.06 2ZM119.931 9.74897V10.3251C119.565 10.3635 119.228 10.5268 118.92 10.8148C118.612 11.1029 118.323 11.6118 118.053 12.3416L113.317 24.7284C113.24 24.7284 113.163 24.7284 113.086 24.7284C113.009 24.7284 112.922 24.7284 112.826 24.7284L107.511 11.9671C107.203 11.2181 106.895 10.7668 106.587 10.6132C106.298 10.4403 106.048 10.3539 105.836 10.3539V9.74897C106.221 9.76817 106.616 9.79698 107.02 9.83539C107.444 9.85459 107.897 9.8642 108.378 9.8642C108.975 9.8642 109.601 9.85459 110.255 9.83539C110.929 9.8162 111.555 9.78739 112.133 9.74897V10.3539C111.651 10.3539 111.218 10.3923 110.833 10.4691C110.467 10.5267 110.226 10.7092 110.111 11.0165C110.015 11.3237 110.111 11.8519 110.4 12.6008L114.01 21.5021L113.837 21.6461L117.129 13.0329C117.38 12.3992 117.476 11.8999 117.418 11.535C117.38 11.1509 117.187 10.8628 116.84 10.6708C116.513 10.4787 116.003 10.3635 115.31 10.3251V9.74897C115.656 9.76817 115.955 9.78739 116.205 9.80658C116.455 9.80658 116.696 9.8162 116.927 9.83539C117.177 9.83539 117.447 9.83539 117.736 9.83539C118.179 9.83539 118.573 9.82578 118.92 9.80658C119.286 9.78739 119.623 9.76817 119.931 9.74897ZM124.794 24.786C124.005 24.786 123.321 24.642 122.744 24.3539C122.166 24.0466 121.723 23.6241 121.415 23.0864C121.126 22.5487 120.982 21.9245 120.982 21.214C120.982 20.369 121.175 19.6776 121.56 19.1399C121.964 18.6022 122.474 18.1701 123.09 17.8436C123.707 17.5171 124.352 17.2483 125.025 17.037C125.719 16.8066 126.373 16.5953 126.989 16.4033C127.606 16.192 128.106 15.952 128.491 15.6831C128.896 15.4143 129.098 15.059 129.098 14.6173V12.8313C129.098 12.0247 128.973 11.4101 128.722 10.9877C128.491 10.5652 128.174 10.2867 127.769 10.1523C127.365 9.99862 126.912 9.92181 126.412 9.92181C125.93 9.92181 125.411 9.98903 124.852 10.1235C124.313 10.2579 123.88 10.5364 123.552 10.9588C123.918 11.0357 124.236 11.2277 124.506 11.535C124.775 11.8422 124.91 12.2359 124.91 12.7161C124.91 13.1962 124.756 13.5802 124.448 13.8683C124.14 14.1372 123.745 14.2716 123.264 14.2716C122.705 14.2716 122.291 14.0988 122.022 13.7531C121.771 13.3882 121.646 12.9849 121.646 12.5432C121.646 12.0439 121.771 11.6406 122.022 11.3333C122.272 11.0261 122.59 10.738 122.975 10.4691C123.418 10.1619 123.986 9.90262 124.679 9.69136C125.391 9.46091 126.19 9.34568 127.076 9.34568C127.866 9.34568 128.54 9.44171 129.098 9.63375C129.656 9.80659 130.118 10.0658 130.484 10.4115C130.985 10.8724 131.312 11.439 131.466 12.1111C131.62 12.7641 131.697 13.5514 131.697 14.4733V22.4815C131.697 22.9616 131.765 23.3073 131.899 23.5185C132.053 23.7298 132.285 23.8354 132.592 23.8354C132.804 23.8354 133.007 23.7874 133.199 23.6914C133.392 23.5953 133.623 23.4417 133.892 23.2305L134.21 23.7202C133.806 24.0274 133.421 24.2867 133.055 24.4979C132.689 24.6899 132.198 24.786 131.582 24.786C131.023 24.786 130.561 24.6899 130.195 24.4979C129.83 24.3059 129.55 24.0274 129.358 23.6626C129.184 23.2785 129.098 22.7984 129.098 22.2222C128.578 23.0864 127.952 23.7298 127.22 24.1523C126.508 24.5747 125.699 24.786 124.794 24.786ZM125.834 23.6337C126.47 23.6337 127.057 23.4513 127.596 23.0864C128.154 22.7215 128.655 22.1742 129.098 21.4444V15.7984C128.867 16.1248 128.53 16.4033 128.087 16.6337C127.644 16.845 127.163 17.0658 126.643 17.2963C126.123 17.5076 125.622 17.7668 125.141 18.0741C124.679 18.3621 124.294 18.7462 123.986 19.2263C123.678 19.7064 123.524 20.3306 123.524 21.0988C123.524 21.8669 123.726 22.4815 124.13 22.9424C124.554 23.4033 125.122 23.6337 125.834 23.6337Z" fill="white"/>
</svg>
