<svg width="32" height="32" viewBox="0 0 32 32" fill="none" xmlns="http://www.w3.org/2000/svg">
<path d="M15.9998 2H11.3332C8.75584 2 6.6665 4.08934 6.6665 6.66667C6.6665 9.244 8.75584 11.3333 11.3332 11.3333M15.9998 2V11.3333M15.9998 2H20.6665C23.2438 2 25.3332 4.08934 25.3332 6.66667C25.3332 9.244 23.2438 11.3333 20.6665 11.3333M15.9998 11.3333H11.3332M15.9998 11.3333V20.6667M15.9998 11.3333H20.6665M11.3332 11.3333C8.75584 11.3333 6.6665 13.4227 6.6665 16C6.6665 18.5773 8.75584 20.6667 11.3332 20.6667M15.9998 20.6667H11.3332M15.9998 20.6667V25.3333C15.9998 27.9107 13.9105 30 11.3332 30C8.75584 30 6.6665 27.9107 6.6665 25.3333C6.6665 22.756 8.75584 20.6667 11.3332 20.6667M20.6665 11.3333C23.2438 11.3333 25.3332 13.4227 25.3332 16C25.3332 18.5773 23.2438 20.6667 20.6665 20.6667C18.0892 20.6667 15.9998 18.5773 15.9998 16C15.9998 13.4227 18.0892 11.3333 20.6665 11.3333Z" stroke="#00C8FF" stroke-width="2" stroke-linecap="round" stroke-linejoin="round"/>
</svg>
