<svg width="48" height="48" viewBox="0 0 48 48" fill="none" xmlns="http://www.w3.org/2000/svg">
<path d="M36.8042 35.0214C34.3294 35.0214 31.8545 35.0214 29.3797 35.0214C29.3288 35.0214 29.2766 35.0243 29.2258 35.0341C29.058 35.0637 28.8872 35.1075 28.7503 35.2021C28.5881 35.3135 28.4399 35.4546 28.3736 35.6549C28.3341 35.7749 28.2918 35.892 28.2621 36.0162C28.2227 36.1784 28.2354 36.3365 28.2339 36.4973C28.2311 37.073 28.2339 37.65 28.2339 38.2257V38.4078H28.4146C29.5842 38.4078 30.7539 38.4078 31.9237 38.4092C32.0253 38.4092 32.1254 38.4304 32.227 38.443C32.2369 38.443 32.2482 38.4516 32.2553 38.46C32.3102 38.5334 32.4076 38.57 32.433 38.6688C32.433 38.6702 32.5035 38.903 32.5035 38.9045C32.5135 38.9806 32.4767 39.0469 32.45 39.1118C32.3978 39.2346 32.3243 39.3475 32.2284 39.4434C30.2446 41.4259 28.2636 43.4097 26.2783 45.3893C26.0652 45.6023 25.8183 45.7759 25.5347 45.8917C25.3865 45.9523 25.0437 46.0285 24.9421 45.989C24.7502 45.9127 24.5456 45.8733 24.3622 45.7717C24.1788 45.6701 23.9996 45.5699 23.8599 45.4091C23.8246 45.3682 23.7456 45.3498 23.7314 45.306C23.7104 45.2397 23.6567 45.2313 23.6172 45.196C23.5805 45.1635 23.5565 45.117 23.5283 45.0747C23.5016 45.0366 23.4451 45.0394 23.4253 44.9787C23.4112 44.935 23.3237 44.918 23.304 44.8743C23.2814 44.8221 23.2433 44.7911 23.208 44.7558C23.0514 44.5964 22.8947 44.4369 22.7339 44.2817C22.4743 44.0305 22.2133 43.7807 21.9494 43.5339C21.8817 43.4703 21.8647 43.3546 21.7533 43.335C21.7237 43.2333 21.6292 43.1854 21.5657 43.1134C21.4951 43.0344 21.4175 42.9624 21.3427 42.8876C21.2721 42.8171 21.2016 42.7466 21.131 42.676C21.0605 42.6054 20.99 42.5349 20.9194 42.4644C20.8488 42.3938 20.7783 42.3232 20.7078 42.2527C20.6329 42.1779 20.5582 42.1032 20.4835 42.0283C20.4129 41.9578 20.3423 41.8873 20.2718 41.8167C20.2012 41.7462 20.1307 41.6756 20.0601 41.605C19.9868 41.5303 19.9021 41.4681 19.8358 41.385C19.7666 41.2989 19.6806 41.2255 19.6015 41.1465C19.5225 41.0675 19.4435 40.9885 19.3645 40.9095C19.2855 40.8304 19.2064 40.7514 19.1274 40.6724C19.0442 40.5891 18.9609 40.5059 18.8778 40.4226C18.7987 40.3436 18.7197 40.2646 18.6407 40.1856C18.5617 40.1066 18.4827 40.0275 18.4036 39.9485C18.3246 39.8696 18.2456 39.7906 18.1666 39.7116C18.0876 39.6326 18.0086 39.5535 17.9295 39.4745C17.8321 39.3771 17.7221 39.205 17.6798 39.0836C17.6036 38.8649 17.6629 38.6406 17.8462 38.5206C17.986 38.4304 18.1384 38.3626 18.3133 38.3725C18.319 38.3725 18.3246 38.3725 18.3303 38.3725C18.913 38.3838 19.4957 38.4008 20.0799 38.4063C20.6682 38.412 21.2553 38.4063 21.8436 38.4063H22.0298V36.5016C22.0298 36.407 22.0257 36.3139 22.0298 36.2194C22.0341 36.1276 21.972 36.0458 21.9918 35.9513C21.996 35.9343 21.9734 35.9131 21.9663 35.892C21.8859 35.6141 21.7449 35.3827 21.4711 35.257C21.361 35.1357 21.1988 35.116 21.0577 35.0623C20.9547 35.0243 20.8347 35.0214 20.7219 35.0214C17.629 35.02 14.5375 35.02 11.4447 35.02C11.4263 34.9537 11.4898 34.9325 11.5153 34.8902C11.6083 34.735 11.7043 34.5812 11.7961 34.4246C11.8877 34.2694 11.9808 34.1142 12.0641 33.9547C12.0994 33.887 12.1628 33.8334 12.1657 33.7501C12.3237 33.5441 12.4112 33.2986 12.5523 33.0827C12.6948 32.8613 12.8275 32.6354 12.9502 32.4027C12.9756 32.3546 12.9981 32.3052 13.025 32.2573C13.1153 32.095 13.2126 31.9356 13.2959 31.7705C13.3354 31.6929 13.3706 31.6139 13.4144 31.5377C13.5456 31.305 13.6642 31.065 13.8052 30.8364C13.8955 30.6926 13.9632 30.5359 14.0677 30.3977C14.1438 30.2975 14.2158 30.1889 14.261 30.0732C14.3485 29.853 14.474 29.6555 14.5926 29.4537C14.6673 29.3253 14.7548 29.204 14.8268 29.0742C14.903 28.9359 14.9552 28.7835 15.044 28.6551C15.1048 28.5677 15.1471 28.473 15.2007 28.3842C15.3164 28.1908 15.4321 28.0004 15.5393 27.8014C15.6352 27.6222 15.7481 27.453 15.8483 27.2765C15.916 27.158 15.964 27.0282 16.0389 26.9153C16.1418 26.7602 16.2223 26.5908 16.3111 26.4286C16.3972 26.2706 16.4776 26.1082 16.575 25.9573C16.6991 25.7626 16.8148 25.5651 16.9207 25.3604C17.0603 25.0937 17.193 24.8229 17.3694 24.5774H19.627C19.627 25.7696 19.627 26.9633 19.627 28.1556C19.627 28.3263 19.6833 28.483 19.7243 28.6438C19.7694 28.8273 19.8457 28.9938 19.9472 29.1518C20.0376 29.2914 20.1222 29.4354 20.228 29.5638C20.3988 29.7712 20.6414 29.8798 20.8729 30.0012C20.9759 29.9983 21.0478 30.1056 21.1578 30.0802C21.2227 30.1507 21.3117 30.0957 21.3865 30.1253C21.4908 30.1662 21.5981 30.193 21.7138 30.1874C21.8196 30.1818 21.9255 30.1874 22.0312 30.1874C22.0609 30.1874 22.0933 30.1944 22.1173 30.1846C22.4051 30.0576 22.7155 29.9899 22.9992 29.8432C23.2461 29.7148 23.493 29.5863 23.7314 29.4452C23.8359 29.3846 23.9318 29.3083 24.0391 29.2505C24.0828 29.2279 24.1294 29.2265 24.1759 29.1941C24.3509 29.0713 24.5344 28.9585 24.722 28.8554C24.8377 28.792 24.952 28.7271 25.0606 28.6536C25.1566 28.5902 25.254 28.5253 25.3541 28.4675C25.4528 28.4096 25.5616 28.3659 25.6561 28.3024C25.8479 28.174 26.0497 28.0624 26.2529 27.9553C26.4617 27.8452 26.6593 27.7153 26.8624 27.5969C27.0473 27.4882 27.2293 27.3739 27.4099 27.261C27.5538 27.1708 27.7005 27.0847 27.8473 26.9972C28.0307 26.8857 28.2113 26.7714 28.3962 26.6628C28.4611 26.6247 28.5344 26.5993 28.6007 26.5612C28.7574 26.4681 28.9084 26.3693 29.065 26.2761C29.206 26.1915 29.3542 26.121 29.4925 26.0292C29.5659 25.9813 29.6491 25.9488 29.7154 25.8882C29.7352 25.8712 29.7648 25.8641 29.7874 25.8514C29.8311 25.8275 29.8721 25.8021 29.9158 25.7781C30.0315 25.7132 30.1331 25.6286 30.2517 25.5678C30.3927 25.4945 30.5239 25.4014 30.6594 25.3167C30.6735 25.3082 30.6862 25.2885 30.7003 25.2885C30.7949 25.2885 30.8386 25.1898 30.9162 25.1714C31.0135 25.1474 31.07 25.0796 31.1363 25.019C31.1433 25.0119 31.1561 25.0106 31.166 25.0063C31.1772 25.0373 31.2027 25.0684 31.1984 25.0966C31.1843 25.2094 31.2421 25.2885 31.3014 25.3731C31.3649 25.4635 31.4227 25.5566 31.4764 25.6525C31.5427 25.771 31.5864 25.9051 31.6682 26.0123C31.7501 26.1196 31.7896 26.2465 31.8629 26.3566C31.9392 26.4708 32.0069 26.5894 32.076 26.7094C32.1325 26.8081 32.1819 26.9125 32.2397 27.0112C32.3625 27.2201 32.4923 27.4233 32.6122 27.6335C32.6898 27.7704 32.7435 27.9228 32.8281 28.054C32.9565 28.253 33.0623 28.4632 33.1851 28.665C33.2359 28.7482 33.2739 28.8399 33.3191 28.926C33.3628 29.0079 33.4348 29.0699 33.4645 29.1659C33.4912 29.2575 33.5477 29.345 33.6027 29.4255C33.7777 29.6781 33.9131 29.9546 34.0598 30.224C34.0683 30.2382 34.0753 30.2538 34.0839 30.2664C34.17 30.4075 34.2616 30.5444 34.3406 30.6897C34.4563 30.8999 34.5806 31.1074 34.6892 31.3219C34.802 31.5405 34.9389 31.7452 35.0546 31.9624C35.1732 32.184 35.2875 32.4097 35.4342 32.6171C35.4878 32.6933 35.5316 32.7752 35.5753 32.8584C35.6487 32.9981 35.7192 33.1392 35.7912 33.2803C35.8702 33.3099 35.8504 33.396 35.8885 33.4525C36.0197 33.6472 36.1424 33.8489 36.2469 34.0605C36.2737 34.1142 36.309 34.1635 36.3386 34.2158C36.4557 34.426 36.5757 34.6348 36.6871 34.8478C36.7492 34.9678 36.7436 34.9706 36.8113 35.0229L36.8042 35.0214Z" fill="#4285F3"/>
<path d="M25.3404 10.4703C30.3368 10.4703 35.3331 10.4703 40.3293 10.4675C40.4225 10.4675 40.5085 10.5113 40.596 10.5028C40.692 10.4929 40.7724 10.5507 40.8641 10.5409C40.9685 10.6199 41.0997 10.6297 41.2183 10.6636C41.3989 10.713 41.571 10.7821 41.7319 10.8711C41.9548 10.9923 42.1721 11.125 42.3738 11.2858C42.5064 11.3917 42.5968 11.5272 42.7168 11.6372C42.8409 11.7501 42.9411 11.8813 43.0243 12.0223C43.1429 12.2241 43.2698 12.4217 43.3333 12.6531C43.3644 12.7674 43.4166 12.876 43.4448 12.996C43.4758 13.1286 43.5013 13.2641 43.5393 13.3967C43.6056 13.6225 43.6141 13.8553 43.6141 14.0894C43.6113 17.5393 43.6127 20.9905 43.6127 24.4404C43.5506 24.4447 43.4843 24.4221 43.4378 24.4884C43.425 24.5053 43.387 24.5082 43.3601 24.5096C43.0299 24.5223 42.6984 24.48 42.3696 24.5462C41.8462 24.5462 41.324 24.5406 40.8006 24.5476C40.2828 24.5547 39.7636 24.5138 39.2457 24.5815H32.2119C32.1654 24.5815 32.1174 24.5829 32.0709 24.5801C32.061 24.5801 32.0525 24.5576 32.0427 24.5462C32.0892 24.511 32.1344 24.4729 32.1823 24.4419C32.2839 24.377 32.3898 24.3176 32.4927 24.2542C32.5393 24.2245 32.5831 24.1878 32.6296 24.1596C32.6719 24.1343 32.7199 24.1188 32.7594 24.0919C32.9217 23.9861 33.0896 23.8859 33.2419 23.7688C33.3662 23.6729 33.5072 23.6009 33.6215 23.4866C33.7682 23.3413 33.8515 23.1536 33.98 22.997C34.0025 22.9688 34.0053 22.925 34.0166 22.8897C34.0378 22.8276 34.049 22.7599 34.0815 22.7049C34.1295 22.6259 34.1577 22.5454 34.1577 22.4538C34.1577 22.2717 34.1521 22.0897 34.1577 21.9077C34.1633 21.7271 34.0547 21.5846 34.0068 21.4223C33.9955 21.3828 33.9376 21.3589 33.9122 21.3207C33.8854 21.2813 33.8741 21.2305 33.8473 21.1895C33.8106 21.1331 33.7655 21.0823 33.7231 21.0287C33.685 20.9793 33.6441 20.9327 33.6117 20.8805C33.5778 20.8227 33.4861 20.8255 33.4748 20.7465C33.2533 20.6252 33.0684 20.4417 32.83 20.3458C32.7848 20.3274 32.7496 20.2851 32.7058 20.2611C32.6578 20.2342 32.607 20.2216 32.5591 20.1891C32.4194 20.0932 32.2783 19.9987 32.1259 19.9183C32.0398 19.8717 31.9439 19.8336 31.8691 19.7715C31.704 19.6375 31.5178 19.5401 31.3358 19.4385C31.1072 19.3101 30.9011 19.1393 30.6528 19.0448C30.6331 19.0377 30.619 19.0138 30.6007 19.0011C30.492 18.9263 30.3903 18.8459 30.2648 18.7909C30.1731 18.7514 30.0772 18.6991 29.9939 18.6371C29.8034 18.4946 29.6044 18.3675 29.3872 18.2688C29.3575 18.2547 29.3251 18.2462 29.2997 18.2251C29.1868 18.1348 29.0514 18.0812 28.9357 17.9993C28.8129 17.9132 28.6831 17.8441 28.5519 17.7749C28.5322 17.7651 28.5138 17.7524 28.4954 17.7397C28.3459 17.6451 28.2034 17.5393 28.0467 17.4603C27.7857 17.3277 27.5515 17.1527 27.3032 17.0018C27.2439 16.9651 27.1649 16.9749 27.124 16.9269C27.052 16.8408 26.949 16.8056 26.863 16.7449C26.6696 16.6095 26.4622 16.4952 26.2563 16.381C26.1645 16.3301 26.0757 16.2765 25.9881 16.2186C25.744 16.0592 25.5042 15.8941 25.2445 15.7573C25.0259 15.6416 24.8128 15.5174 24.6082 15.3777C24.549 15.3368 24.4882 15.2973 24.4276 15.2592C24.3204 15.1914 24.2117 15.1265 24.1045 15.0588V12.6249C24.1284 12.6023 24.1539 12.5839 24.1751 12.5586C24.2583 12.4556 24.2865 12.3215 24.3598 12.2129C24.4459 12.0859 24.508 11.9448 24.5828 11.8121C24.6675 11.664 24.762 11.5229 24.8453 11.3748C25.0131 11.0756 25.1755 10.7723 25.3404 10.4717V10.4703Z" fill="#FBBC05"/>
<path d="M24.1052 12.6219V15.0559C24.0501 15.0206 23.9795 14.9994 23.933 14.9641C23.7792 14.8429 23.6014 14.7639 23.4336 14.6735C23.1781 14.538 22.9354 14.3814 22.6687 14.2643C22.4232 14.1557 22.2342 14.1162 22.0296 14.1049C21.8885 14.0964 21.7474 14.0992 21.6063 14.1049C21.4934 14.1091 21.3806 14.1233 21.2677 14.1402C21.1886 14.1515 20.6821 14.3899 20.6016 14.4492C20.4338 14.5719 20.2814 14.7088 20.1445 14.8668C19.9639 15.0743 19.8284 15.3084 19.7382 15.5639C19.6662 15.7684 19.6196 15.98 19.621 16.2045C19.6253 18.9967 19.6239 21.7891 19.6239 24.5814H7.70113C7.70113 20.9961 7.70113 17.4108 7.69824 13.8255C7.69824 13.7323 7.72647 13.6478 7.73781 13.5574C7.74764 13.4741 7.73075 13.3923 7.76454 13.3049C7.79276 13.2272 7.80121 13.1285 7.8041 13.0396C7.80977 12.8688 7.87467 12.7164 7.92407 12.5584C7.94513 12.4907 7.96075 12.4201 7.98748 12.3552C8.01571 12.2903 8.05666 12.2311 8.09055 12.169C8.24859 11.8784 8.40096 11.5848 8.65918 11.3648C8.95259 11.115 9.25594 10.8793 9.61435 10.7326C9.75967 10.6734 9.91353 10.6226 10.0757 10.6085C10.1731 10.6001 10.2677 10.5648 10.3636 10.5407C10.5047 10.504 10.6444 10.4688 10.7926 10.4688C14.8307 10.4688 18.8676 10.4688 22.9058 10.4688C22.9424 10.5718 22.9636 10.6805 23.0412 10.765C23.0738 10.8003 23.0934 10.8483 23.1175 10.8921C23.1922 11.0317 23.2571 11.1771 23.3446 11.3083C23.4843 11.5185 23.6 11.7429 23.7171 11.9658C23.7877 12.1013 23.8583 12.2368 23.9287 12.3707C23.9499 12.4089 23.9979 12.4484 23.9951 12.4823C23.9852 12.574 24.0444 12.5937 24.1052 12.6191V12.6219Z" fill="#34A853"/>
<path d="M4.38694 24.5801C4.38694 18.2913 4.38694 12.0026 4.38835 5.71388C4.38835 5.60524 4.36153 5.49377 4.4081 5.38794C4.45184 5.28776 4.38271 5.16924 4.45749 5.0733C4.4603 4.8814 4.53509 4.70362 4.56471 4.51737C4.57601 4.44823 4.64373 4.39602 4.63385 4.31701C4.73262 4.17027 4.75661 3.99107 4.8455 3.8401C4.96403 3.63974 5.07549 3.43655 5.22788 3.25596C5.30549 3.16424 5.38449 3.07394 5.46775 2.98645C5.58486 2.86229 5.73724 2.78046 5.86564 2.67181C6.03214 2.53071 6.22968 2.439 6.41451 2.33318C6.56267 2.24851 6.72634 2.16949 6.89989 2.14833C7.02264 2.13422 7.12847 2.04533 7.25832 2.07496C7.29638 2.02135 7.35284 2.04674 7.40224 2.03969C7.83679 1.97055 8.27422 2.01429 8.71016 2.00723C9.15037 2.00018 9.59208 2.00582 10.0323 2.00582H18.072C18.0762 2.02699 18.0762 2.05098 18.0848 2.07073C18.1666 2.27108 18.3189 2.43053 18.4205 2.6196C18.4615 2.69579 18.4968 2.77763 18.5462 2.8496C18.6901 3.05136 18.7917 3.27712 18.9172 3.49018C18.9976 3.62563 19.0611 3.77238 19.1444 3.90642C19.2262 4.03623 19.308 4.16603 19.3772 4.30431C19.435 4.42143 19.4943 4.53994 19.5676 4.64718C19.6537 4.77558 19.7158 4.91668 19.8005 5.04507C19.8964 5.19182 19.9599 5.35831 20.0629 5.50082C20.1081 5.5629 20.1207 5.64757 20.187 5.69553C20.204 5.82676 20.2929 5.92412 20.355 6.02994C20.4298 6.15693 20.5088 6.28247 20.5751 6.41517C20.6344 6.53225 20.6866 6.655 20.7642 6.75947C20.8714 6.90189 20.9307 7.06987 21.0294 7.21519C21.1184 7.34499 21.1621 7.50303 21.2496 7.63284C21.3892 7.84305 21.4965 8.07305 21.6347 8.28466C21.6898 8.36795 21.718 8.46387 21.7716 8.54427C21.8535 8.66852 21.9198 8.79972 21.989 8.92953C22.0369 9.01838 22.0637 9.10307 22.0553 9.20187C18.2343 9.20187 14.4148 9.20187 10.5939 9.19898C10.5007 9.19898 10.4161 9.23288 10.3257 9.23566C10.2382 9.23854 10.1437 9.21598 10.0619 9.23993C9.81502 9.31189 9.55391 9.33018 9.31407 9.43325C9.24489 9.46287 9.16031 9.45721 9.08974 9.48683C8.86402 9.58135 8.63114 9.66603 8.42798 9.80429C8.28545 9.9017 8.1458 10.0061 8.00605 10.1091C7.94681 10.1529 7.88897 10.198 7.83401 10.246C7.77894 10.2939 7.71264 10.3376 7.66602 10.387C7.59695 10.4604 7.51366 10.5182 7.4572 10.6114C7.40641 10.6947 7.33445 10.7723 7.27243 10.8541C7.1454 11.022 7.07485 11.2237 6.9394 11.386C6.90836 11.5314 6.79124 11.6457 6.80959 11.8108C6.81946 11.9024 6.74186 11.98 6.71365 12.069C6.67696 12.1861 6.63745 12.299 6.63463 12.4245C6.63463 12.4965 6.65861 12.567 6.60641 12.6418C6.56831 12.6968 6.62475 12.7829 6.57114 12.8563C6.54574 12.8902 6.5669 12.9592 6.5669 13.0114V24.5787H4.37988L4.38694 24.5801Z" fill="#34A853"/>
<path d="M32.0423 24.545C32.0522 24.5562 32.0607 24.5773 32.0706 24.5787C32.1171 24.583 32.1651 24.5802 32.2117 24.5802H39.2454C39.7619 24.5124 40.2811 24.5534 40.8003 24.5463C41.3237 24.5393 41.8458 24.545 42.3694 24.545C42.698 24.48 43.0296 24.5209 43.3598 24.5083C43.3866 24.5083 43.4247 24.504 43.4374 24.4871C43.4854 24.4207 43.5517 24.4419 43.6124 24.4391V31.8608C43.532 31.9145 43.6096 32.0132 43.5475 32.0824C43.5136 32.119 43.5376 32.2037 43.5263 32.2657C43.5151 32.3236 43.4882 32.3787 43.4727 32.4365C43.4572 32.4957 43.4529 32.5565 43.436 32.6157C43.412 32.699 43.3866 32.7836 43.3527 32.8626C43.3217 32.9375 43.2892 33.0122 43.2469 33.0842C43.1072 33.3226 42.9647 33.5583 42.7996 33.7783C42.7108 33.8969 42.5951 33.9957 42.4892 34.1015C42.4582 34.1326 42.4186 34.1579 42.3835 34.1847C42.2592 34.2793 42.1168 34.347 42.001 34.4542C41.9729 34.481 41.9347 34.4965 41.9065 34.522C41.8642 34.5601 41.8303 34.6038 41.7598 34.5995C41.7288 34.5981 41.6921 34.6334 41.6624 34.6589C41.6102 34.7054 41.5552 34.7393 41.4818 34.7364C41.4705 34.7364 41.4521 34.7308 41.448 34.7364C41.3661 34.8338 41.2378 34.8295 41.1319 34.8691C41.0317 34.9071 40.9245 34.9354 40.8201 34.9693C40.8102 34.972 40.8003 34.9834 40.7904 34.982C40.6521 34.9707 40.5209 35.0214 40.3813 35.0214C39.1889 35.0158 37.9952 35.0187 36.8016 35.0187C36.7338 34.9664 36.7395 34.9636 36.6774 34.8436C36.566 34.6306 36.446 34.4218 36.3289 34.2116C36.2993 34.1593 36.264 34.1099 36.2372 34.0563C36.1328 33.8447 36.01 33.643 35.8788 33.4482C35.8407 33.3932 35.8605 33.3057 35.7814 33.2761C35.7095 33.1349 35.6403 32.9939 35.5656 32.8542C35.5218 32.7724 35.4781 32.6891 35.4245 32.6129C35.2791 32.4055 35.1634 32.1783 35.0449 31.9582C34.9292 31.741 34.7924 31.5363 34.6795 31.3176C34.5694 31.1045 34.4467 30.8971 34.331 30.6855C34.252 30.5416 34.1602 30.4033 34.0741 30.2622C34.0657 30.2481 34.0586 30.2339 34.0502 30.2198C33.9034 29.9504 33.768 29.6753 33.593 29.4213C33.538 29.3408 33.483 29.2547 33.4547 29.1617C33.4265 29.0657 33.3531 29.0037 33.3094 28.9217C33.2643 28.8343 33.2261 28.744 33.1753 28.6607C33.0526 28.459 32.9468 28.2488 32.8184 28.0498C32.7323 27.9186 32.6802 27.7662 32.6025 27.6293C32.4826 27.4191 32.3527 27.2159 32.23 27.007C32.1722 26.9083 32.1241 26.8039 32.0663 26.7052C31.9986 26.5866 31.9294 26.4666 31.8533 26.3524C31.7799 26.2423 31.7418 26.1154 31.6586 26.0081C31.5767 25.9009 31.533 25.7668 31.4667 25.6483C31.4131 25.5523 31.3552 25.4578 31.2917 25.3689C31.2325 25.2842 31.1746 25.2052 31.1886 25.0924C31.1929 25.0642 31.1676 25.0317 31.1562 25.0021C31.2451 25.0021 31.3086 24.9428 31.3778 24.9019C31.5288 24.8144 31.6741 24.7142 31.8292 24.6324C31.8941 24.5971 31.9535 24.5379 32.0381 24.5435L32.0423 24.545Z" fill="#E94335"/>
<path d="M7.70255 24.5803H17.3677C17.1914 24.8258 17.0587 25.0968 16.919 25.3634C16.8132 25.568 16.6975 25.767 16.5733 25.9603C16.476 26.1112 16.397 26.2735 16.3094 26.4315C16.2206 26.5952 16.1416 26.7631 16.0372 26.9184C15.9624 27.0312 15.9145 27.161 15.8467 27.2796C15.7465 27.4559 15.6337 27.6253 15.5377 27.8045C15.4319 28.002 15.3147 28.1939 15.199 28.3871C15.1455 28.4761 15.1031 28.5706 15.0425 28.658C14.9535 28.7865 14.9013 28.9402 14.8251 29.0771C14.7531 29.2069 14.6657 29.3283 14.5909 29.4567C14.4724 29.6584 14.3468 29.8559 14.2594 30.0761C14.2142 30.1918 14.1408 30.3004 14.066 30.4006C13.9616 30.5375 13.8939 30.6941 13.8036 30.8394C13.6611 31.0666 13.544 31.3079 13.4127 31.5407C13.369 31.6169 13.3337 31.6959 13.2942 31.7735C13.2109 31.94 13.1136 32.0981 13.0233 32.2603C12.9966 32.3083 12.9739 32.3577 12.9486 32.4056C12.8258 32.6385 12.6931 32.8656 12.5507 33.0857C12.4109 33.3016 12.3221 33.5471 12.164 33.7531C12.1613 33.8364 12.0977 33.8899 12.0625 33.9577C11.9792 34.1171 11.886 34.2723 11.7944 34.4276C11.7027 34.5842 11.6067 34.7366 11.5136 34.8932C11.4882 34.9355 11.4246 34.9566 11.443 35.023C11.2088 35.023 10.9732 35.023 10.7389 35.023C10.6699 35.023 10.6007 35.023 10.533 35.0103C10.4695 34.999 10.4087 34.9707 10.3452 34.9538C10.2493 34.9284 10.1548 34.8946 10.0574 34.8862C9.99109 34.8805 9.94319 34.8466 9.88673 34.8268C9.80482 34.7972 9.73853 34.7309 9.63984 34.738C9.60733 34.7407 9.57205 34.7083 9.53815 34.6899C9.40278 34.6152 9.28003 34.5221 9.14734 34.4417C8.88355 34.2794 8.67323 34.055 8.47146 33.8279C8.31909 33.6558 8.1865 33.4597 8.09198 33.2479C8.03413 33.1195 7.95084 33.0011 7.91416 32.8642C7.8761 32.7273 7.83087 32.5918 7.80125 32.4522C7.78574 32.3802 7.77302 32.3097 7.77163 32.2363V32.201C7.7604 32.153 7.7434 32.1051 7.73773 32.0571C7.73217 32.0049 7.74201 31.9513 7.73634 31.8991C7.66866 31.2938 7.711 30.6871 7.70394 30.0803C7.69689 29.4694 7.70255 28.8584 7.70255 28.2475V24.5817V24.5803Z" fill="#1967D1"/>
<path d="M27.5978 6.51983C31.0772 6.51983 34.5567 6.51983 38.0348 6.51983C38.1152 6.51983 38.2097 6.50155 38.2746 6.53534C38.3438 6.57201 38.4313 6.51138 38.4821 6.58901C38.65 6.56217 38.8009 6.64964 38.9632 6.66664C39.1001 6.68076 39.2482 6.67648 39.3738 6.73433C39.5233 6.80351 39.6842 6.83024 39.8338 6.90081C39.9933 6.97555 40.1498 7.05318 40.2923 7.15476C40.487 7.29451 40.7072 7.40176 40.8751 7.57669C40.9753 7.68254 41.0797 7.78979 41.1517 7.9196C41.1601 7.93361 41.177 7.94494 41.1884 7.95766C41.3012 8.0818 41.4127 8.20595 41.5241 8.33019C41.5396 8.34709 41.5537 8.36398 41.5651 8.38376C41.6441 8.52769 41.7259 8.66883 41.7965 8.81692C41.8472 8.92556 41.8939 9.03558 41.9714 9.1485C41.9263 9.16967 41.8953 9.19223 41.86 9.19929C41.8204 9.20773 41.7782 9.20068 41.7372 9.20068H26.1162C26.1205 9.15555 26.1134 9.10476 26.1317 9.0667C26.1642 8.99752 26.208 8.93261 26.2545 8.8706C26.4027 8.67728 26.4789 8.443 26.6242 8.2469C26.7003 8.14393 26.737 8.01123 26.8034 7.89982C26.8739 7.78273 26.9529 7.67121 27.0193 7.54846C27.1307 7.34241 27.2407 7.13508 27.3537 6.92904C27.4299 6.78939 27.5174 6.65531 27.5992 6.51983H27.5978Z" fill="#FBBC05"/>
<path d="M27.5969 6.51988C27.5151 6.65674 27.4277 6.78933 27.3514 6.92898C27.24 7.13502 27.1285 7.34246 27.0171 7.5484C26.9507 7.67115 26.8717 7.78128 26.8012 7.89976C26.7348 8.01128 26.6981 8.14387 26.622 8.24684C26.4767 8.44305 26.4004 8.67721 26.2522 8.87054C26.2057 8.93116 26.162 8.99756 26.1295 9.06664C26.1112 9.1047 26.1183 9.15549 26.114 9.20072H22.0574C22.0659 9.10192 22.0391 9.01724 21.9911 8.92838C21.9206 8.79858 21.8557 8.66738 21.7739 8.54313C21.7202 8.46133 21.6919 8.36681 21.637 8.28351C21.4987 8.0733 21.3915 7.8433 21.2517 7.63169C21.1657 7.50049 21.1205 7.34246 21.0317 7.21404C20.9315 7.06734 20.8723 6.90075 20.7664 6.75832C20.6888 6.65525 20.6366 6.53111 20.5774 6.41402C20.5096 6.28133 20.4319 6.1558 20.3572 6.02881C20.2951 5.92299 20.2062 5.82422 20.1893 5.69441C20.123 5.64502 20.1103 5.56178 20.0652 5.4997C19.9621 5.35719 19.8986 5.19069 19.8027 5.04395C19.718 4.91555 19.656 4.77445 19.5699 4.64606C19.4965 4.53741 19.4372 4.42029 19.3794 4.30319C19.3103 4.16491 19.2284 4.0365 19.1466 3.90528C19.0619 3.77124 18.9999 3.62591 18.9194 3.48904C18.7938 3.2774 18.6922 3.05164 18.5483 2.84846C18.4975 2.77791 18.4636 2.69608 18.4228 2.61847C18.3211 2.4294 18.1687 2.27137 18.0869 2.0696C18.0785 2.04984 18.0785 2.02586 18.0742 2.0047C18.3607 2.0047 18.6485 2.00046 18.935 2.00611C19.0831 2.00893 19.2327 2.01457 19.3766 2.04562C19.4485 2.06113 19.5191 2.07384 19.5911 2.07525C19.6023 2.08653 19.615 2.09923 19.6264 2.11052C19.8211 2.12321 20.0058 2.18248 20.1921 2.23186C20.3685 2.27843 20.5195 2.37861 20.6917 2.43222C20.7776 2.45903 20.8539 2.52676 20.9272 2.58461C21.184 2.78779 21.4182 3.01495 21.6327 3.26047C21.8529 3.51304 22.0814 3.75714 22.3058 4.00405C22.4441 4.15785 22.6021 4.30036 22.6966 4.49225C22.7037 4.50778 22.7206 4.51765 22.7333 4.53035C22.9365 4.74623 23.1411 4.9607 23.3443 5.17658C23.5023 5.3459 23.6561 5.52086 23.8198 5.68453C24.0694 5.93569 24.3602 6.1304 24.6847 6.27577C24.7933 6.32517 24.9076 6.36184 25.0177 6.40696C25.1263 6.45209 25.2533 6.46759 25.3718 6.49304C25.4692 6.51282 25.5637 6.51838 25.6583 6.51838C26.3045 6.52127 26.9507 6.51838 27.5969 6.51838V6.51988Z" fill="#188038"/>
<path d="M4.38683 24.5802H6.57385C6.57385 26.7319 6.57385 28.8836 6.57385 31.0339C6.57385 31.1596 6.59924 31.2795 6.63734 31.3966C6.66132 31.4714 6.61617 31.5547 6.67261 31.6237C6.67544 31.6266 6.64722 31.6492 6.64581 31.6633C6.64157 31.7112 6.62464 31.6802 6.59924 31.6816C6.49342 31.6886 6.43698 31.6111 6.36361 31.5631C6.21545 31.4672 6.05319 31.3867 5.92056 31.2739C5.7202 31.1031 5.49867 30.9507 5.35757 30.718C5.34911 30.7038 5.33359 30.6925 5.32089 30.6798C5.09514 30.4837 4.95263 30.2325 4.82141 29.9701C4.72405 29.7754 4.63939 29.575 4.57448 29.3662C4.5378 29.2448 4.50534 29.1193 4.49546 28.9937C4.48418 28.8526 4.40234 28.727 4.4221 28.5817C4.36001 28.5323 4.38824 28.4632 4.38824 28.4025C4.38683 27.127 4.38824 25.8514 4.38824 24.5759L4.38683 24.5802Z" fill="#1967D1"/>
<path d="M24.1055 12.6222C24.0449 12.5969 23.9857 12.5771 23.9955 12.4853C23.9998 12.4514 23.9504 12.412 23.9292 12.3739C23.8573 12.2398 23.7881 12.103 23.7175 11.9689C23.6004 11.7461 23.4847 11.5231 23.3451 11.3114C23.2576 11.1802 23.1941 11.0335 23.1179 10.8951C23.0939 10.8514 23.0741 10.8049 23.0417 10.7682C22.9641 10.6821 22.9415 10.5749 22.9062 10.4719H25.3402C25.1751 10.7724 25.0128 11.0757 24.8449 11.3749C24.7616 11.5231 24.6671 11.6641 24.5824 11.8123C24.5063 11.9449 24.4456 12.0847 24.3596 12.213C24.2861 12.3216 24.2579 12.4543 24.1747 12.5587C24.1549 12.5841 24.1281 12.6024 24.1041 12.6251L24.1055 12.6222Z" fill="#188038"/>
<path d="M7.77278 32.1997V32.235C7.76295 32.2264 7.753 32.2194 7.74316 32.2109C7.753 32.2068 7.76295 32.2039 7.77278 32.1997Z" fill="#4285F3"/>
</svg>
