<svg width="32" height="32" viewBox="0 0 32 32" fill="none" xmlns="http://www.w3.org/2000/svg">
<path d="M10.2018 2.09695C8.71222 2.16726 7.6948 2.40586 6.80574 2.75423C5.88539 3.11302 5.1052 3.59386 4.32909 4.37315C3.55207 5.1529 3.07488 5.93446 2.71882 6.85574C2.37408 7.74707 2.14047 8.76497 2.07469 10.2555C2.00938 11.7488 1.9944 12.2251 2.00168 16.0268C2.00893 19.828 2.02571 20.3052 2.09692 21.7989C2.16812 23.2881 2.40583 24.3051 2.7542 25.1946C3.11345 26.115 3.5938 26.8947 4.37353 27.6713C5.15282 28.4479 5.93483 28.9246 6.85654 29.2812C7.74697 29.6254 8.76529 29.86 10.2554 29.9253C11.7486 29.9911 12.2254 30.0056 16.0261 29.9983C19.8286 29.9911 20.3054 29.9743 21.7986 29.9035C23.2882 29.8323 24.3048 29.5937 25.1947 29.2462C26.1151 28.8861 26.8953 28.4066 27.6714 27.6268C28.4475 26.8475 28.9247 26.0655 29.2808 25.1438C29.6255 24.2534 29.86 23.235 29.9249 21.7458C29.9902 20.2517 30.0056 19.7745 29.9983 15.9732C29.9911 12.1715 29.9739 11.6953 29.9031 10.2025C29.8323 8.7119 29.5938 7.69537 29.2458 6.80539C28.8861 5.88503 28.4062 5.10572 27.6269 4.3287C26.8476 3.55258 26.0656 3.07447 25.1439 2.7193C24.2531 2.37456 23.2352 2.13958 21.7451 2.07517C20.2518 2.00895 19.7751 1.99444 15.973 2.00169C12.1718 2.00895 11.6951 2.02528 10.2018 2.09695ZM10.3652 27.4055C9.00027 27.3461 8.25909 27.1193 7.76513 26.9292C7.11103 26.6761 6.64427 26.3726 6.15302 25.885C5.66268 25.3956 5.35831 24.9302 5.10293 24.2774C4.91104 23.7834 4.68018 23.0431 4.61622 21.6782C4.54681 20.2027 4.53095 19.7599 4.52414 16.0218C4.51688 12.2845 4.53048 11.8418 4.5949 10.3648C4.6534 9.00084 4.88159 8.25875 5.07118 7.76521C5.32428 7.11021 5.62682 6.64435 6.11537 6.1531C6.60479 5.66184 7.07019 5.35838 7.72337 5.103C8.2169 4.91021 8.95718 4.68114 10.3216 4.61628C11.7981 4.54642 12.2403 4.53146 15.9776 4.5242C19.7157 4.51693 20.1584 4.5301 21.6353 4.59496C22.9993 4.65438 23.7414 4.88028 24.2345 5.07125C24.889 5.32435 25.3557 5.62601 25.8466 6.11545C26.3373 6.6049 26.6417 7.06939 26.8971 7.72394C27.0899 8.2161 27.3189 8.95729 27.3834 10.3213C27.4536 11.7978 27.4695 12.2405 27.4763 15.9778C27.4836 19.7159 27.47 20.1587 27.4051 21.6347C27.3457 22.9996 27.1193 23.7412 26.9288 24.2357C26.6757 24.8893 26.3732 25.3561 25.8842 25.8473C25.3952 26.3368 24.9298 26.6421 24.2762 26.8974C23.7836 27.0898 23.0424 27.3193 21.6789 27.3842C20.2024 27.4536 19.7601 27.4694 16.0216 27.4762C12.2843 27.4835 11.8421 27.4694 10.3652 27.4055ZM21.7782 8.5164C21.78 9.44357 22.5339 10.1943 23.4611 10.1925C24.3887 10.1907 25.1394 9.43722 25.138 8.51004C25.1362 7.58287 24.3823 6.83171 23.4547 6.83352C22.5271 6.83533 21.7764 7.58922 21.7782 8.5164ZM8.81159 16.0136C8.81928 19.984 12.0439 23.1956 16.0134 23.1878C19.9833 23.1801 23.1966 19.9564 23.1889 15.9859C23.1812 12.0169 19.9561 8.80352 15.9857 8.81124C12.0162 8.81895 8.80386 12.0441 8.81159 16.0136ZM11.3331 16.0086C11.3286 13.4317 13.4143 11.3383 15.9907 11.3337C18.5676 11.3288 20.6614 13.4135 20.6664 15.9909C20.6714 18.5683 18.5858 20.6613 16.0084 20.6663C13.432 20.6712 11.3381 18.586 11.3331 16.0086Z" fill="#94979C"/>
</svg>
