<svg width="12" height="12" viewBox="0 0 12 12" fill="none" xmlns="http://www.w3.org/2000/svg">
<g clip-path="url(#clip0_23114_40)">
<path d="M0 0H12V12H0V0Z" fill="#F7DF1E"/>
<path d="M3.15524 10.0281L4.07356 9.47232C4.25072 9.78644 4.41189 10.0522 4.79846 10.0522C5.16901 10.0522 5.40263 9.90726 5.40263 9.34345V5.50916H6.53032V9.35939C6.53032 10.5274 5.84568 11.059 4.8468 11.059C3.94469 11.059 3.42105 10.5919 3.15524 10.0281Z" fill="black"/>
<path d="M7.14286 9.90724L8.06107 9.3756C8.30278 9.77034 8.61693 10.0603 9.1727 10.0603C9.63996 10.0603 9.93792 9.82669 9.93792 9.50448C9.93792 9.11783 9.63185 8.98088 9.1163 8.75541L8.83446 8.63449C8.02084 8.28819 7.48112 7.85322 7.48112 6.93491C7.48112 6.08912 8.12552 5.44469 9.13246 5.44469C9.84937 5.44469 10.3649 5.69442 10.7354 6.3469L9.85737 6.91072C9.66404 6.56438 9.45467 6.42747 9.13248 6.42747C8.80221 6.42747 8.59276 6.6369 8.59276 6.91072C8.59276 7.24905 8.80221 7.38602 9.28547 7.59547L9.56737 7.71629C10.5259 8.12712 11.0657 8.54594 11.0657 9.48836C11.0657 10.5034 10.2682 11.0591 9.1969 11.0591C8.14973 11.0591 7.47307 10.5597 7.14286 9.90724Z" fill="black"/>
</g>
<defs>
<clipPath id="clip0_23114_40">
<rect width="12" height="12" fill="white"/>
</clipPath>
</defs>
</svg>
