<svg width="33" height="32" viewBox="0 0 33 32" fill="none" xmlns="http://www.w3.org/2000/svg">
<path d="M2.5 5.63636C2.5 4.72725 2.81532 3.97725 3.44595 3.38636C4.07657 2.79545 4.89641 2.5 5.90541 2.5C6.89641 2.5 7.69819 2.79089 8.31081 3.37273C8.94143 3.97273 9.25676 4.75453 9.25676 5.71818C9.25676 6.59091 8.95046 7.31816 8.33784 7.9C7.70722 8.5 6.87838 8.8 5.85135 8.8H5.82432C4.83332 8.8 4.03154 8.5 3.41892 7.9C2.8063 7.3 2.5 6.54545 2.5 5.63636ZM2.85135 29.5V11.2818H8.85135V29.5H2.85135ZM12.1757 29.5H18.1757V19.3273C18.1757 18.6909 18.2478 18.2 18.3919 17.8545C18.6441 17.2364 19.027 16.7136 19.5405 16.2864C20.0541 15.8591 20.6982 15.6455 21.473 15.6455C23.491 15.6455 24.5 17.0182 24.5 19.7636V29.5H30.5V19.0545C30.5 16.3636 29.8694 14.3227 28.6081 12.9318C27.3468 11.5409 25.6802 10.8455 23.6081 10.8455C21.2838 10.8455 19.473 11.8545 18.1757 13.8727V13.9273H18.1486L18.1757 13.8727V11.2818H12.1757C12.2117 11.8636 12.2297 13.6727 12.2297 16.7091C12.2297 19.7454 12.2117 24.0091 12.1757 29.5Z" fill="#00C8FF"/>
</svg>
