<svg width="48" height="48" viewBox="0 0 48 48" fill="none" xmlns="http://www.w3.org/2000/svg">
<path d="M46 21.5534H33.1338L44.2765 15.1201L41.8295 10.8805L30.6868 17.3138L37.1186 6.17189L32.879 3.72341L26.4471 14.8653V2H21.5528V14.8665L15.1185 3.72341L10.8803 6.17066L17.3133 17.3126L6.17055 10.8805L3.72337 15.1189L14.8662 21.5522H2V26.4467H14.8649L3.72337 32.8799L6.17055 37.1195L17.3121 30.6875L10.879 41.8293L15.1185 44.2765L21.5516 33.1335V46H26.446V33.1347L32.8778 44.2765L37.1172 41.8293L30.6842 30.6863L41.827 37.1195L44.2742 32.8799L33.1326 26.4478H45.9975V21.5534H46ZM24 30.6566C20.3096 30.6566 17.3183 27.6654 17.3183 23.9748C17.3183 20.2842 20.3096 17.2928 24 17.2928C27.6905 17.2928 30.6817 20.2842 30.6817 23.9748C30.6817 27.6654 27.6905 30.6566 24 30.6566Z" fill="#625DF5"/>
</svg>
