<svg width="12" height="12" viewBox="0 0 12 12" fill="none" xmlns="http://www.w3.org/2000/svg">
<path d="M5.09134 0.577225C6.3084 0.366566 7.59245 0.589802 8.67044 1.2113C9.74945 1.82651 10.6173 2.8295 11.0853 4.00751C11.5613 5.18657 11.6283 6.53332 11.2822 7.75955C10.8132 9.45321 9.5302 10.8838 7.92539 11.4833C7.79343 11.5472 7.69294 11.4099 7.6635 11.2936C7.26966 10.1984 6.86363 9.10735 6.47385 8.01213C6.38351 7.81509 6.619 7.74383 6.74589 7.67675C7.4412 7.33299 7.81272 6.43795 7.57215 5.68021C7.39451 5.06185 6.84942 4.5808 6.23125 4.4959C5.52477 4.37747 4.78073 4.80927 4.49956 5.48527C4.22955 6.09314 4.35643 6.85927 4.81118 7.33613C4.98983 7.54575 5.23649 7.66522 5.47198 7.79099C5.57755 7.84968 5.54101 7.99117 5.50447 8.08445C5.10758 9.16604 4.71779 10.2497 4.32192 11.3313C4.2935 11.4246 4.20113 11.5346 4.09759 11.4896C2.16288 10.7905 0.717436 8.86629 0.530665 6.7597C0.385511 5.37522 0.760069 3.94358 1.56095 2.82426C2.39533 1.63681 3.68954 0.810941 5.09134 0.577225Z" fill="#1E532B"/>
<path d="M4.82835 1.03506C5.84239 0.787721 6.92851 0.86947 7.89688 1.26878C9.0033 1.71944 9.94426 2.58409 10.5117 3.66359C11.0202 4.6236 11.2263 5.74922 11.0933 6.835C10.9644 7.94804 10.4751 9.00971 9.72703 9.82091C9.23676 10.3596 8.6328 10.7788 7.9791 11.0733C7.61469 10.0683 7.23709 9.06736 6.88892 8.05598C7.47766 7.74681 7.91718 7.14208 7.99635 6.4598C8.1344 5.53332 7.57206 4.56806 6.72144 4.2484C5.93781 3.92665 4.97655 4.18656 4.44871 4.8657C3.93915 5.4872 3.84475 6.42731 4.21627 7.14418C4.41014 7.54453 4.74511 7.85057 5.1217 8.06227C4.75729 9.06526 4.39289 10.0683 4.02746 11.0702C3.02357 10.6363 2.15975 9.86702 1.60045 8.90281C1.12743 8.09162 0.868593 7.14732 0.874683 6.19988C0.860472 5.02606 1.25432 3.85538 1.95674 2.93414C2.6683 1.98879 3.6996 1.30441 4.82936 1.03506H4.82835Z" fill="#3AAA54"/>
</svg>
