<svg width="48" height="48" viewBox="0 0 48 48" fill="none" xmlns="http://www.w3.org/2000/svg">
<g filter="url(#filter0_f_23057_294)">
<path d="M24.3119 41.5913C34.206 41.5913 42.2268 33.5391 42.2268 23.6062C42.2268 13.6733 34.206 5.62109 24.3119 5.62109C14.4178 5.62109 6.39697 13.6733 6.39697 23.6062C6.39697 33.5391 14.4178 41.5913 24.3119 41.5913Z" fill="#6D29F3" fill-opacity="0.3"/>
</g>
<path d="M14.4694 37.507C21.9043 42.7898 32.1972 41.0216 37.4594 33.5577C42.7216 26.0937 40.9603 15.7603 33.5255 10.4775C26.0906 5.19469 15.7976 6.96287 10.5355 14.4269C5.27328 21.8908 7.03457 32.2242 14.4694 37.507Z" fill="url(#paint0_linear_23057_294)"/>
<path d="M31.4922 24.1576C32.6616 24.9885 34.2805 24.7104 35.1081 23.5364C35.9358 22.3625 35.6588 20.7372 34.4894 19.9063C33.32 19.0754 31.7011 19.3535 30.8735 20.5275C30.0458 21.7014 30.3229 23.3267 31.4922 24.1576Z" fill="#7944D8"/>
<path d="M15.0237 28.7625C17.2181 30.3217 20.256 29.7998 21.8091 27.5969C23.3623 25.3939 22.8424 22.3441 20.6481 20.7849C18.4537 19.2257 15.4158 19.7475 13.8626 21.9505C12.3095 24.1535 12.8294 27.2033 15.0237 28.7625Z" fill="#6B39B9" fill-opacity="0.81"/>
<path d="M16.5719 16.5496C17.6691 17.3292 19.1881 17.0683 19.9646 15.9668C20.7412 14.8653 20.4813 13.3404 19.3841 12.5608C18.2869 11.7812 16.7679 12.0421 15.9914 13.1436C15.2148 14.2451 15.4747 15.77 16.5719 16.5496Z" fill="#6837B3" fill-opacity="0.51"/>
<path d="M33.2583 18.4803C33.6048 18.7265 34.0845 18.6441 34.3297 18.2963C34.575 17.9484 34.4929 17.4669 34.1464 17.2207C33.7999 16.9745 33.3202 17.0569 33.075 17.4047C32.8298 17.7526 32.9119 18.2341 33.2583 18.4803Z" fill="#7233EE"/>
<path d="M35.7334 27.8804C36.0799 28.1266 36.5596 28.0442 36.8048 27.6964C37.0501 27.3486 36.968 26.867 36.6215 26.6208C36.275 26.3746 35.7953 26.457 35.5501 26.8049C35.3049 27.1527 35.387 27.6343 35.7334 27.8804Z" fill="#7233EE"/>
<path d="M14.8088 19.5509C15.1986 19.8279 15.7382 19.7352 16.0141 19.3438C16.29 18.9525 16.1976 18.4108 15.8078 18.1338C15.418 17.8568 14.8784 17.9495 14.6025 18.3409C14.3266 18.7322 14.419 19.2739 14.8088 19.5509Z" fill="#7233EE"/>
<path d="M22.9507 17.8526C25.1162 19.3913 28.1142 18.8763 29.6469 16.7023C31.1795 14.5283 30.6665 11.5186 28.5011 9.97989C26.3356 8.4412 23.3376 8.95621 21.8049 11.1302C20.2722 13.3042 20.7852 16.3139 22.9507 17.8526Z" fill="#874BFF"/>
<path d="M11.3237 34.0112C12.5652 34.8933 14.284 34.5981 15.1628 33.3517C16.0415 32.1052 15.7474 30.3797 14.5058 29.4975C13.2643 28.6153 11.5455 28.9106 10.6667 30.157C9.78798 31.4034 10.0821 33.129 11.3237 34.0112Z" fill="#671CFB" fill-opacity="0.15"/>
<path d="M11.4996 33.73C12.5839 34.5005 14.085 34.2426 14.8524 33.154C15.6198 32.0655 15.363 30.5585 14.2787 29.7881C13.1944 29.0176 11.6933 29.2755 10.9259 30.364C10.1584 31.4526 10.4153 32.9596 11.4996 33.73Z" fill="#7233EE" fill-opacity="0.05"/>
<path d="M31.4549 35.4993C32.2559 36.0685 33.365 35.878 33.9319 35.0738C34.4989 34.2696 34.3091 33.1562 33.5081 32.587C32.707 32.0178 31.598 32.2083 31.031 33.0125C30.4641 33.8167 30.6538 34.9301 31.4549 35.4993Z" fill="#522879"/>
<g filter="url(#filter1_f_23057_294)">
<path d="M40.0359 16.344C43.1541 16.3997 45.2515 17.0858 45.7547 18.4393C46.9649 21.6992 38.4696 27.5834 26.7797 31.583C15.0891 35.5828 4.62916 36.1832 3.41715 32.9237C2.9422 31.6454 3.96093 29.9644 6.07847 28.1507C6.317 28.3116 6.57485 28.4622 6.85073 28.603C6.12959 29.5399 5.85341 30.3943 6.11715 31.1038C7.15249 33.8867 16.083 33.3739 26.0649 29.9588C36.0468 26.5436 43.3 21.5192 42.2659 18.7358C41.9769 17.958 41.0712 17.4384 39.6984 17.1666C39.8208 16.8935 39.9333 16.6192 40.0359 16.344Z" fill="#FF0059"/>
</g>
<defs>
<filter id="filter0_f_23057_294" x="4.14237" y="3.36649" width="40.3393" height="40.4794" filterUnits="userSpaceOnUse" color-interpolation-filters="sRGB">
<feFlood flood-opacity="0" result="BackgroundImageFix"/>
<feBlend mode="normal" in="SourceGraphic" in2="BackgroundImageFix" result="shape"/>
<feGaussianBlur stdDeviation="1.1273" result="effect1_foregroundBlur_23057_294"/>
</filter>
<filter id="filter1_f_23057_294" x="1.84492" y="14.8867" width="45.482" height="21.5948" filterUnits="userSpaceOnUse" color-interpolation-filters="sRGB">
<feFlood flood-opacity="0" result="BackgroundImageFix"/>
<feBlend mode="normal" in="SourceGraphic" in2="BackgroundImageFix" result="shape"/>
<feGaussianBlur stdDeviation="0.728661" result="effect1_foregroundBlur_23057_294"/>
</filter>
<linearGradient id="paint0_linear_23057_294" x1="25.2322" y1="15.062" x2="19.5505" y2="41.1383" gradientUnits="userSpaceOnUse">
<stop stop-color="#8C52FF"/>
<stop offset="1" stop-color="#260528"/>
</linearGradient>
</defs>
</svg>
