<svg width="32" height="32" viewBox="0 0 32 32" fill="none" xmlns="http://www.w3.org/2000/svg">
<path d="M22.6649 14.9797C22.5459 14.9215 22.4237 14.8664 22.3 14.8129C22.0854 10.8294 19.9175 8.54964 16.2804 8.51975H16.2303C14.0546 8.51975 12.2438 9.45272 11.1301 11.1503L13.132 12.5411C13.9637 11.273 15.2701 11.0024 16.2318 11.0024H16.2647C17.463 11.0103 18.3668 11.3596 18.9511 12.0424C19.3771 12.538 19.6622 13.2255 19.8032 14.0877C18.6644 13.9019 17.5084 13.846 16.3571 13.9209C12.9048 14.1144 10.6822 16.1471 10.831 18.9617C10.8629 19.6569 11.0606 20.3343 11.4077 20.9366C11.7547 21.539 12.2408 22.0488 12.825 22.423C13.9308 23.1205 15.2283 23.4477 16.531 23.3575C18.3402 23.2568 19.7593 22.5709 20.7493 21.2965C21.5011 20.3337 21.9757 19.086 22.1856 17.5206C23.0044 17.9872 23.654 18.7036 24.0402 19.5659C24.6401 20.9708 24.6762 23.2804 22.7996 25.1637C21.1565 26.8125 19.1797 27.5236 16.1942 27.5472C12.8813 27.5236 10.3767 26.4569 8.74768 24.377C7.2283 22.4151 6.44041 19.6021 6.41222 16.0024C6.44041 12.4027 7.2283 9.58959 8.76178 7.64185C10.3908 5.56195 12.8954 4.49525 16.2083 4.47165C19.5447 4.49525 22.0932 5.57296 23.7833 7.65758C24.6135 8.6818 25.2385 9.97033 25.6504 11.4728L28 10.8435C27.5589 9.10684 26.7583 7.48304 25.6504 6.07799C23.4638 3.40181 20.2903 2.02832 16.2083 2H16.1927C12.1201 2.02832 8.97951 3.40653 6.8743 6.09058C4.99935 8.48828 4.03289 11.819 4 15.9929V16.0118C4.03289 20.1858 4.99935 23.5164 6.8743 25.9094C8.97951 28.5982 12.1154 29.9764 16.1927 30H16.2083C19.8329 29.9748 22.3877 29.0214 24.4929 26.91C27.2466 24.1458 27.1557 20.6829 26.2551 18.5558C25.605 17.036 24.3629 15.7978 22.6649 14.9797ZM16.4073 20.889C14.891 20.9756 13.3168 20.2912 13.2385 18.828C13.1805 17.7424 14.0076 16.531 16.5012 16.3862C16.7863 16.3705 17.0667 16.3626 17.3408 16.3626C18.1887 16.3576 19.0346 16.4436 19.8642 16.6191C19.576 20.2235 17.8922 20.8072 16.4073 20.889Z" fill="#94979C"/>
</svg>
