<svg width="556" height="200" viewBox="0 0 556 200" fill="none" xmlns="http://www.w3.org/2000/svg">
<path d="M-0.000374794 195.84C-0.000374794 186.965 1.10896 179.029 3.32763 172.032C5.71696 165.035 8.78896 158.72 12.5436 153.088C16.469 147.456 20.7356 142.251 25.3436 137.472C30.1223 132.693 34.9863 128 39.9356 123.392C52.3943 111.787 61.1836 101.291 66.3036 91.904C71.5943 82.5173 74.2396 73.216 74.2396 64C74.2396 58.5386 73.557 53.248 72.1916 48.128C70.8263 43.008 68.3516 38.8266 64.7676 35.584C61.1836 32.1706 56.149 30.5493 49.6636 30.72C45.0556 30.72 40.8743 31.8293 37.1196 34.048C33.5356 36.096 30.805 38.5706 28.9276 41.472C30.805 43.3493 32.085 45.568 32.7676 48.128C33.621 50.688 34.0476 52.9066 34.0476 54.784C34.0476 56.6613 33.4503 58.9653 32.2556 61.696C31.061 64.256 29.1836 66.4746 26.6236 68.352C24.2343 70.2293 20.9063 71.168 16.6396 71.168C11.349 70.8266 7.25296 68.864 4.35163 65.28C1.62096 61.696 0.255626 57.4293 0.255626 52.48C0.255626 48.5546 1.45029 44.3733 3.83963 39.936C6.22896 35.328 9.81296 30.976 14.5916 26.88C19.3703 22.6133 25.173 19.2 31.9996 16.64C38.997 13.9093 47.0183 12.544 56.0636 12.544C62.8903 12.544 69.6316 13.3973 76.2876 15.104C83.1143 16.8106 89.3436 19.5413 94.9756 23.296C100.608 27.0506 105.045 32 108.288 38.144C111.701 44.288 113.408 51.8826 113.408 60.928C113.408 65.1946 112.64 69.7173 111.104 74.496C109.568 79.104 106.752 84.224 102.656 89.856C98.5596 95.3173 92.8423 101.632 85.5036 108.8C78.165 115.968 68.693 124.331 57.0876 133.888C47.701 141.568 40.789 148.565 36.3516 154.88C31.9143 161.195 29.269 166.059 28.4156 169.472L78.5916 170.752C82.517 170.923 85.845 170.667 88.5756 169.984C91.477 169.131 93.6956 167.509 95.2316 165.12C96.9383 162.56 97.7916 158.891 97.7916 154.112H114.176L112.128 195.84H-0.000374794ZM207.924 199.936C194.953 199.936 183.945 197.205 174.9 191.744C165.854 186.112 158.601 178.773 153.14 169.728C147.678 160.512 143.668 150.443 141.108 139.52C138.718 128.597 137.524 117.76 137.524 107.008C137.524 96.256 138.974 85.3333 141.876 74.24C144.948 63.1466 149.47 52.992 155.444 43.776C161.417 34.3893 168.841 26.88 177.716 21.248C186.59 15.4453 197.001 12.544 208.948 12.544C221.406 12.544 231.988 15.36 240.692 20.992C249.566 26.624 256.734 34.048 262.196 43.264C267.657 52.3093 271.668 62.2933 274.228 73.216C276.788 84.1386 278.068 94.976 278.068 105.728C278.068 116.309 276.617 127.147 273.716 138.24C270.985 149.333 266.718 159.573 260.916 168.96C255.113 178.176 247.774 185.685 238.9 191.488C230.196 197.12 219.87 199.936 207.924 199.936ZM209.46 181.76C215.433 181.76 220.382 179.883 224.308 176.128C228.233 172.373 231.22 167.253 233.268 160.768C235.486 154.112 237.022 146.517 237.876 137.984C238.729 129.451 239.156 120.491 239.156 111.104C239.156 100.693 238.729 90.7093 237.876 81.152C237.193 71.424 235.742 62.8053 233.524 55.296C231.476 47.616 228.404 41.5573 224.308 37.12C220.382 32.6826 215.092 30.464 208.436 30.464C202.292 30.464 197.172 32.3413 193.076 36.096C188.98 39.8506 185.652 45.056 183.092 51.712C180.702 58.368 178.996 65.9626 177.972 74.496C176.948 83.0293 176.436 92.0746 176.436 101.632C176.436 108.8 176.606 116.139 176.948 123.648C177.46 131.157 178.313 138.411 179.508 145.408C180.873 152.235 182.75 158.379 185.14 163.84C187.529 169.301 190.686 173.653 194.612 176.896C198.708 180.139 203.657 181.76 209.46 181.76ZM299.25 195.84C299.25 186.965 300.359 179.029 302.578 172.032C304.967 165.035 308.039 158.72 311.794 153.088C315.719 147.456 319.986 142.251 324.594 137.472C329.372 132.693 334.236 128 339.186 123.392C351.644 111.787 360.434 101.291 365.554 91.904C370.844 82.5173 373.49 73.216 373.49 64C373.49 58.5386 372.807 53.248 371.442 48.128C370.076 43.008 367.602 38.8266 364.018 35.584C360.434 32.1706 355.399 30.5493 348.914 30.72C344.306 30.72 340.124 31.8293 336.37 34.048C332.786 36.096 330.055 38.5706 328.178 41.472C330.055 43.3493 331.335 45.568 332.018 48.128C332.871 50.688 333.298 52.9066 333.298 54.784C333.298 56.6613 332.7 58.9653 331.506 61.696C330.311 64.256 328.434 66.4746 325.874 68.352C323.484 70.2293 320.156 71.168 315.89 71.168C310.599 70.8266 306.503 68.864 303.602 65.28C300.871 61.696 299.506 57.4293 299.506 52.48C299.506 48.5546 300.7 44.3733 303.09 39.936C305.479 35.328 309.063 30.976 313.842 26.88C318.62 22.6133 324.423 19.2 331.25 16.64C338.247 13.9093 346.268 12.544 355.314 12.544C362.14 12.544 368.882 13.3973 375.538 15.104C382.364 16.8106 388.594 19.5413 394.226 23.296C399.858 27.0506 404.295 32 407.538 38.144C410.951 44.288 412.658 51.8826 412.658 60.928C412.658 65.1946 411.89 69.7173 410.354 74.496C408.818 79.104 406.002 84.224 401.906 89.856C397.81 95.3173 392.092 101.632 384.754 108.8C377.415 115.968 367.943 124.331 356.338 133.888C346.951 141.568 340.039 148.565 335.602 154.88C331.164 161.195 328.519 166.059 327.666 169.472L377.842 170.752C381.767 170.923 385.095 170.667 387.826 169.984C390.727 169.131 392.946 167.509 394.482 165.12C396.188 162.56 397.042 158.891 397.042 154.112H413.426L411.378 195.84H299.25ZM489.766 199.936C478.672 199.936 469.2 198.144 461.35 194.56C453.499 190.976 447.44 186.539 443.174 181.248C439.078 175.787 437.03 170.325 437.03 164.864C437.03 159.915 438.566 155.477 441.638 151.552C444.71 147.627 448.891 145.579 454.182 145.408C458.448 145.237 461.776 146.091 464.166 147.968C466.555 149.675 468.262 151.808 469.286 154.368C470.31 156.928 470.822 159.403 470.822 161.792C470.822 163.157 470.566 164.864 470.054 166.912C469.712 168.789 469.03 170.581 468.006 172.288C468.859 174.165 470.395 175.872 472.614 177.408C474.832 178.773 477.307 179.883 480.038 180.736C482.939 181.419 485.584 181.76 487.974 181.76C494.8 181.76 500.262 179.968 504.358 176.384C508.624 172.8 511.696 168.192 513.574 162.56C515.451 156.928 516.39 151.211 516.39 145.408C516.39 141.483 516.134 137.045 515.622 132.096C515.11 127.147 513.83 122.283 511.782 117.504C509.904 112.725 506.832 108.8 502.566 105.728C498.47 102.656 492.838 101.12 485.67 101.12C483.28 101.12 480.464 101.461 477.222 102.144C473.979 102.656 470.395 103.595 466.47 104.96C462.715 106.325 458.875 108.203 454.95 110.592L443.942 102.144L442.918 16.64H509.222C515.195 16.64 519.888 15.7013 523.302 13.824C526.886 11.776 528.678 7.16795 528.678 -4.57764e-05H544.806L543.014 41.472L462.63 43.008V88.576C466.555 86.8693 471.419 85.4186 477.222 84.224C483.024 83.0293 488.486 82.432 493.606 82.432C504.187 82.432 513.403 83.968 521.254 87.04C529.104 90.112 535.59 94.3786 540.71 99.84C545.83 105.131 549.584 111.275 551.974 118.272C554.534 125.099 555.814 132.352 555.814 140.032C555.814 153.173 552.571 164.267 546.086 173.312C539.771 182.187 531.579 188.843 521.51 193.28C511.44 197.717 500.859 199.936 489.766 199.936Z" fill="#CECFD2"/>
</svg>
