<svg width="1920" height="1082" viewBox="0 0 1920 1082" fill="none" xmlns="http://www.w3.org/2000/svg">
<g clip-path="url(#clip0_23067_191)">
<path opacity="0.25" d="M674.341 1004.99V1507.49" stroke="white" stroke-opacity="0.1"/>
<path opacity="0.25" d="M697.181 1004.99V1507.49" stroke="white" stroke-opacity="0.1"/>
<path opacity="0.25" d="M720.022 1004.99V1507.49" stroke="white" stroke-opacity="0.1"/>
<path opacity="0.25" d="M742.863 1004.99V1507.49" stroke="white" stroke-opacity="0.1"/>
<path opacity="0.25" d="M765.704 1004.99V1507.49" stroke="white" stroke-opacity="0.1"/>
<path opacity="0.25" d="M788.544 1004.99V1507.49" stroke="white" stroke-opacity="0.1"/>
<path opacity="0.25" d="M811.385 1004.99V1507.49" stroke="white" stroke-opacity="0.1"/>
<path opacity="0.25" d="M834.226 1004.99V1507.49" stroke="white" stroke-opacity="0.1"/>
<path opacity="0.25" d="M857.066 1004.99V1507.49" stroke="white" stroke-opacity="0.1"/>
<path opacity="0.25" d="M879.907 1004.99V1507.49" stroke="white" stroke-opacity="0.1"/>
<path opacity="0.25" d="M902.748 1004.99V1507.49" stroke="white" stroke-opacity="0.1"/>
<path opacity="0.25" d="M925.589 1004.99V1507.49" stroke="white" stroke-opacity="0.1"/>
<path opacity="0.25" d="M948.429 1004.99V1507.49" stroke="white" stroke-opacity="0.1"/>
<path opacity="0.25" d="M971.271 1004.99V1507.49" stroke="white" stroke-opacity="0.1"/>
<path opacity="0.25" d="M994.111 1004.99V1507.49" stroke="white" stroke-opacity="0.1"/>
<path opacity="0.25" d="M1016.95 1004.99V1507.49" stroke="white" stroke-opacity="0.1"/>
<path opacity="0.25" d="M1039.79 1004.99V1507.49" stroke="white" stroke-opacity="0.1"/>
<path opacity="0.25" d="M1062.63 1004.99V1507.49" stroke="white" stroke-opacity="0.1"/>
<path opacity="0.25" d="M1085.47 1004.99V1507.49" stroke="white" stroke-opacity="0.1"/>
<path opacity="0.25" d="M1108.31 1004.99V1507.49" stroke="white" stroke-opacity="0.1"/>
<path opacity="0.25" d="M1131.16 1004.99V1507.49" stroke="white" stroke-opacity="0.1"/>
<path opacity="0.25" d="M1154 1004.99V1507.49" stroke="white" stroke-opacity="0.1"/>
<path opacity="0.25" d="M1177.44 1004.99V1507.49" stroke="white" stroke-opacity="0.1"/>
<path opacity="0.25" d="M1199.68 1004.99V1507.49" stroke="white" stroke-opacity="0.1"/>
<path opacity="0.25" d="M1222.52 1004.99V1507.49" stroke="white" stroke-opacity="0.1"/>
<path opacity="0.25" d="M1245.36 1004.99V1507.49" stroke="white" stroke-opacity="0.1"/>
<path opacity="0.25" d="M651.5 1004.99L1268.2 1004.99" stroke="white" stroke-opacity="0.1"/>
<path opacity="0.25" d="M651.5 1027.83L1268.2 1027.83" stroke="white" stroke-opacity="0.1"/>
<path opacity="0.25" d="M651.5 1050.67L1268.2 1050.67" stroke="white" stroke-opacity="0.1"/>
<path opacity="0.25" d="M651.5 1073.51L1268.2 1073.51" stroke="white" stroke-opacity="0.1"/>
<path opacity="0.25" d="M1290.34 1004.99V1507.49" stroke="white" stroke-opacity="0.1"/>
<path opacity="0.25" d="M1313.18 1004.99V1507.49" stroke="white" stroke-opacity="0.1"/>
<path opacity="0.25" d="M1336.02 1004.99V1507.49" stroke="white" stroke-opacity="0.1"/>
<path opacity="0.25" d="M1358.86 1004.99V1507.49" stroke="white" stroke-opacity="0.1"/>
<path opacity="0.25" d="M1381.7 1004.99V1507.49" stroke="white" stroke-opacity="0.1"/>
<path opacity="0.25" d="M1404.54 1004.99V1507.49" stroke="white" stroke-opacity="0.1"/>
<path opacity="0.25" d="M1427.38 1004.99V1507.49" stroke="white" stroke-opacity="0.1"/>
<path opacity="0.25" d="M1450.23 1004.99V1507.49" stroke="white" stroke-opacity="0.1"/>
<path opacity="0.25" d="M1473.07 1004.99V1507.49" stroke="white" stroke-opacity="0.1"/>
<path opacity="0.25" d="M1495.91 1004.99V1507.49" stroke="white" stroke-opacity="0.1"/>
<path opacity="0.25" d="M1518.75 1004.99V1507.49" stroke="white" stroke-opacity="0.1"/>
<path opacity="0.25" d="M1541.59 1004.99V1507.49" stroke="white" stroke-opacity="0.1"/>
<path opacity="0.25" d="M1564.43 1004.99V1507.49" stroke="white" stroke-opacity="0.1"/>
<path opacity="0.25" d="M1587.27 1004.99V1507.49" stroke="white" stroke-opacity="0.1"/>
<path opacity="0.25" d="M1610.11 1004.99V1507.49" stroke="white" stroke-opacity="0.1"/>
<path opacity="0.25" d="M1632.95 1004.99V1507.49" stroke="white" stroke-opacity="0.1"/>
<path opacity="0.25" d="M1655.79 1004.99V1507.49" stroke="white" stroke-opacity="0.1"/>
<path opacity="0.25" d="M1678.63 1004.99V1507.49" stroke="white" stroke-opacity="0.1"/>
<path opacity="0.25" d="M1701.47 1004.99V1507.49" stroke="white" stroke-opacity="0.1"/>
<path opacity="0.25" d="M1724.31 1004.99V1507.49" stroke="white" stroke-opacity="0.1"/>
<path opacity="0.25" d="M1747.16 1004.99V1507.49" stroke="white" stroke-opacity="0.1"/>
<path opacity="0.25" d="M1770 1004.99V1507.49" stroke="white" stroke-opacity="0.1"/>
<path opacity="0.25" d="M1793.44 1004.99V1507.49" stroke="white" stroke-opacity="0.1"/>
<path opacity="0.25" d="M1815.68 1004.99V1507.49" stroke="white" stroke-opacity="0.1"/>
<path opacity="0.25" d="M1838.52 1004.99V1507.49" stroke="white" stroke-opacity="0.1"/>
<path opacity="0.25" d="M1861.36 1004.99V1507.49" stroke="white" stroke-opacity="0.1"/>
<path opacity="0.25" d="M1267.5 1004.99L1884.2 1004.99" stroke="white" stroke-opacity="0.1"/>
<path opacity="0.25" d="M1267.5 1027.83L1884.2 1027.83" stroke="white" stroke-opacity="0.1"/>
<path opacity="0.25" d="M1267.5 1050.67L1884.2 1050.67" stroke="white" stroke-opacity="0.1"/>
<path opacity="0.25" d="M1267.5 1073.51L1884.2 1073.51" stroke="white" stroke-opacity="0.1"/>
<path opacity="0.25" d="M674.341 502.496V1004.99" stroke="white" stroke-opacity="0.1"/>
<path opacity="0.25" d="M697.181 502.496V1004.99" stroke="white" stroke-opacity="0.1"/>
<path opacity="0.25" d="M720.022 502.496V1004.99" stroke="white" stroke-opacity="0.1"/>
<path opacity="0.25" d="M742.863 502.496V1004.99" stroke="white" stroke-opacity="0.1"/>
<path opacity="0.25" d="M765.704 502.496V1004.99" stroke="white" stroke-opacity="0.1"/>
<path opacity="0.25" d="M788.544 502.496V1004.99" stroke="white" stroke-opacity="0.1"/>
<path opacity="0.25" d="M811.385 502.496V1004.99" stroke="white" stroke-opacity="0.1"/>
<path opacity="0.25" d="M834.226 502.496V1004.99" stroke="white" stroke-opacity="0.1"/>
<path opacity="0.25" d="M857.066 502.496V1004.99" stroke="white" stroke-opacity="0.1"/>
<path opacity="0.25" d="M879.907 502.496V1004.99" stroke="white" stroke-opacity="0.1"/>
<path opacity="0.25" d="M902.748 502.496V1004.99" stroke="white" stroke-opacity="0.1"/>
<path opacity="0.25" d="M925.589 502.496V1004.99" stroke="white" stroke-opacity="0.1"/>
<path opacity="0.25" d="M948.429 502.496V1004.99" stroke="white" stroke-opacity="0.1"/>
<path opacity="0.25" d="M971.271 502.496V1004.99" stroke="white" stroke-opacity="0.1"/>
<path opacity="0.25" d="M994.111 502.496V1004.99" stroke="white" stroke-opacity="0.1"/>
<path opacity="0.25" d="M1016.95 502.496V1004.99" stroke="white" stroke-opacity="0.1"/>
<path opacity="0.25" d="M1039.79 502.496V1004.99" stroke="white" stroke-opacity="0.1"/>
<path opacity="0.25" d="M1062.63 502.496V1004.99" stroke="white" stroke-opacity="0.1"/>
<path opacity="0.25" d="M1085.47 502.496V1004.99" stroke="white" stroke-opacity="0.1"/>
<path opacity="0.25" d="M1108.31 502.496V1004.99" stroke="white" stroke-opacity="0.1"/>
<path opacity="0.25" d="M1131.16 502.496V1004.99" stroke="white" stroke-opacity="0.1"/>
<path opacity="0.25" d="M1154 502.496V1004.99" stroke="white" stroke-opacity="0.1"/>
<path opacity="0.25" d="M1177.44 502.496V1004.99" stroke="white" stroke-opacity="0.1"/>
<path opacity="0.25" d="M1199.68 502.496V1004.99" stroke="white" stroke-opacity="0.1"/>
<path opacity="0.25" d="M1222.52 502.496V1004.99" stroke="white" stroke-opacity="0.1"/>
<path opacity="0.25" d="M1245.36 502.496V1004.99" stroke="white" stroke-opacity="0.1"/>
<path opacity="0.25" d="M651.5 502.496L1268.2 502.496" stroke="white" stroke-opacity="0.1"/>
<path opacity="0.25" d="M651.5 525.337L1268.2 525.337" stroke="white" stroke-opacity="0.1"/>
<path opacity="0.25" d="M651.5 548.177L1268.2 548.177" stroke="white" stroke-opacity="0.1"/>
<path opacity="0.25" d="M651.5 571.018L1268.2 571.018" stroke="white" stroke-opacity="0.1"/>
<path opacity="0.25" d="M651.5 593.859L1268.2 593.859" stroke="white" stroke-opacity="0.1"/>
<path opacity="0.25" d="M651.5 616.699L1268.2 616.699" stroke="white" stroke-opacity="0.1"/>
<path opacity="0.25" d="M651.5 639.54L1268.2 639.54" stroke="white" stroke-opacity="0.1"/>
<path opacity="0.25" d="M651.5 662.38L1268.2 662.38" stroke="white" stroke-opacity="0.1"/>
<path opacity="0.25" d="M651.5 685.222L1268.2 685.222" stroke="white" stroke-opacity="0.1"/>
<path opacity="0.25" d="M651.5 708.063L1268.2 708.063" stroke="white" stroke-opacity="0.1"/>
<path opacity="0.25" d="M651.5 730.904L1268.2 730.904" stroke="white" stroke-opacity="0.1"/>
<path opacity="0.25" d="M651.5 753.744L1268.2 753.744" stroke="white" stroke-opacity="0.1"/>
<path opacity="0.25" d="M651.5 776.584L1268.2 776.584" stroke="white" stroke-opacity="0.1"/>
<path opacity="0.25" d="M651.5 799.425L1268.2 799.425" stroke="white" stroke-opacity="0.1"/>
<path opacity="0.25" d="M651.5 822.266L1268.2 822.266" stroke="white" stroke-opacity="0.1"/>
<path opacity="0.25" d="M651.5 845.107L1268.2 845.107" stroke="white" stroke-opacity="0.1"/>
<path opacity="0.25" d="M651.5 867.948L1268.2 867.948" stroke="white" stroke-opacity="0.1"/>
<path opacity="0.25" d="M651.5 890.788L1268.2 890.788" stroke="white" stroke-opacity="0.1"/>
<path opacity="0.25" d="M651.5 913.629L1268.2 913.629" stroke="white" stroke-opacity="0.1"/>
<path opacity="0.25" d="M651.5 936.469L1268.2 936.469" stroke="white" stroke-opacity="0.1"/>
<path opacity="0.25" d="M651.5 982.151L1268.2 982.151" stroke="white" stroke-opacity="0.1"/>
<path opacity="0.25" d="M651.5 1004.99L1268.2 1004.99" stroke="white" stroke-opacity="0.1"/>
<path opacity="0.25" d="M1290.34 502.496V1004.99" stroke="white" stroke-opacity="0.1"/>
<path opacity="0.25" d="M1313.18 502.496V1004.99" stroke="white" stroke-opacity="0.1"/>
<path opacity="0.25" d="M1336.02 502.496V1004.99" stroke="white" stroke-opacity="0.1"/>
<path opacity="0.25" d="M1358.86 502.496V1004.99" stroke="white" stroke-opacity="0.1"/>
<path opacity="0.25" d="M1381.7 502.496V1004.99" stroke="white" stroke-opacity="0.1"/>
<path opacity="0.25" d="M1404.54 502.496V1004.99" stroke="white" stroke-opacity="0.1"/>
<path opacity="0.25" d="M1427.38 502.496V1004.99" stroke="white" stroke-opacity="0.1"/>
<path opacity="0.25" d="M1450.23 502.496V1004.99" stroke="white" stroke-opacity="0.1"/>
<path opacity="0.25" d="M1473.07 502.496V1004.99" stroke="white" stroke-opacity="0.1"/>
<path opacity="0.25" d="M1495.91 502.496V1004.99" stroke="white" stroke-opacity="0.1"/>
<path opacity="0.25" d="M1518.75 502.496V1004.99" stroke="white" stroke-opacity="0.1"/>
<path opacity="0.25" d="M1541.59 502.496V1004.99" stroke="white" stroke-opacity="0.1"/>
<path opacity="0.25" d="M1564.43 502.496V1004.99" stroke="white" stroke-opacity="0.1"/>
<path opacity="0.25" d="M1587.27 502.496V1004.99" stroke="white" stroke-opacity="0.1"/>
<path opacity="0.25" d="M1610.11 502.496V1004.99" stroke="white" stroke-opacity="0.1"/>
<path opacity="0.25" d="M1632.95 502.496V1004.99" stroke="white" stroke-opacity="0.1"/>
<path opacity="0.25" d="M1655.79 502.496V1004.99" stroke="white" stroke-opacity="0.1"/>
<path opacity="0.25" d="M1678.63 502.496V1004.99" stroke="white" stroke-opacity="0.1"/>
<path opacity="0.25" d="M1701.47 502.496V1004.99" stroke="white" stroke-opacity="0.1"/>
<path opacity="0.25" d="M1724.31 502.496V1004.99" stroke="white" stroke-opacity="0.1"/>
<path opacity="0.25" d="M1747.16 502.496V1004.99" stroke="white" stroke-opacity="0.1"/>
<path opacity="0.25" d="M1770 502.496V1004.99" stroke="white" stroke-opacity="0.1"/>
<path opacity="0.25" d="M1793.44 502.496V1004.99" stroke="white" stroke-opacity="0.1"/>
<path opacity="0.25" d="M1815.68 502.496V1004.99" stroke="white" stroke-opacity="0.1"/>
<path opacity="0.25" d="M1838.52 502.496V1004.99" stroke="white" stroke-opacity="0.1"/>
<path opacity="0.25" d="M1861.36 502.496V1004.99" stroke="white" stroke-opacity="0.1"/>
<path opacity="0.25" d="M1267.5 502.496L1884.2 502.496" stroke="white" stroke-opacity="0.1"/>
<path opacity="0.25" d="M1267.5 525.337L1884.2 525.337" stroke="white" stroke-opacity="0.1"/>
<path opacity="0.25" d="M1267.5 548.177L1884.2 548.177" stroke="white" stroke-opacity="0.1"/>
<path opacity="0.25" d="M1267.5 571.018L1884.2 571.018" stroke="white" stroke-opacity="0.1"/>
<path opacity="0.25" d="M1267.5 593.859L1884.2 593.859" stroke="white" stroke-opacity="0.1"/>
<path opacity="0.25" d="M1267.5 616.699L1884.2 616.699" stroke="white" stroke-opacity="0.1"/>
<path opacity="0.25" d="M1267.5 639.54L1884.2 639.54" stroke="white" stroke-opacity="0.1"/>
<path opacity="0.25" d="M1267.5 662.38L1884.2 662.38" stroke="white" stroke-opacity="0.1"/>
<path opacity="0.25" d="M1267.5 685.222L1884.2 685.222" stroke="white" stroke-opacity="0.1"/>
<path opacity="0.25" d="M1267.5 708.063L1884.2 708.063" stroke="white" stroke-opacity="0.1"/>
<path opacity="0.25" d="M1267.5 730.904L1884.2 730.904" stroke="white" stroke-opacity="0.1"/>
<path opacity="0.25" d="M1267.5 753.744L1884.2 753.744" stroke="white" stroke-opacity="0.1"/>
<path opacity="0.25" d="M1267.5 776.584L1884.2 776.584" stroke="white" stroke-opacity="0.1"/>
<path opacity="0.25" d="M1267.5 799.425L1884.2 799.425" stroke="white" stroke-opacity="0.1"/>
<path opacity="0.25" d="M1267.5 822.266L1884.2 822.266" stroke="white" stroke-opacity="0.1"/>
<path opacity="0.25" d="M1267.5 845.107L1884.2 845.107" stroke="white" stroke-opacity="0.1"/>
<path opacity="0.25" d="M1267.5 867.948L1884.2 867.948" stroke="white" stroke-opacity="0.1"/>
<path opacity="0.25" d="M1267.5 890.788L1884.2 890.788" stroke="white" stroke-opacity="0.1"/>
<path opacity="0.25" d="M1267.5 913.629L1884.2 913.629" stroke="white" stroke-opacity="0.1"/>
<path opacity="0.25" d="M1267.5 936.469L1884.2 936.469" stroke="white" stroke-opacity="0.1"/>
<path opacity="0.25" d="M1267.5 982.151L1884.2 982.151" stroke="white" stroke-opacity="0.1"/>
<path opacity="0.25" d="M1267.5 1004.99L1884.2 1004.99" stroke="white" stroke-opacity="0.1"/>
<path opacity="0.25" d="M674.341 0V502.496" stroke="white" stroke-opacity="0.1"/>
<path opacity="0.25" d="M697.181 0V502.496" stroke="white" stroke-opacity="0.1"/>
<path opacity="0.25" d="M720.022 0V502.496" stroke="white" stroke-opacity="0.1"/>
<path opacity="0.25" d="M742.863 0V502.496" stroke="white" stroke-opacity="0.1"/>
<path opacity="0.25" d="M765.704 0V502.496" stroke="white" stroke-opacity="0.1"/>
<path opacity="0.25" d="M788.544 0V502.496" stroke="white" stroke-opacity="0.1"/>
<path opacity="0.25" d="M811.385 0V502.496" stroke="white" stroke-opacity="0.1"/>
<path opacity="0.25" d="M834.226 0V502.496" stroke="white" stroke-opacity="0.1"/>
<path opacity="0.25" d="M857.066 0V502.496" stroke="white" stroke-opacity="0.1"/>
<path opacity="0.25" d="M879.907 0V502.496" stroke="white" stroke-opacity="0.1"/>
<path opacity="0.25" d="M902.748 0V502.496" stroke="white" stroke-opacity="0.1"/>
<path opacity="0.25" d="M925.589 0V502.496" stroke="white" stroke-opacity="0.1"/>
<path opacity="0.25" d="M948.429 0V502.496" stroke="white" stroke-opacity="0.1"/>
<path opacity="0.25" d="M971.271 0V502.496" stroke="white" stroke-opacity="0.1"/>
<path opacity="0.25" d="M994.111 0V502.496" stroke="white" stroke-opacity="0.1"/>
<path opacity="0.25" d="M1016.95 0V502.496" stroke="white" stroke-opacity="0.1"/>
<path opacity="0.25" d="M1039.79 0V502.496" stroke="white" stroke-opacity="0.1"/>
<path opacity="0.25" d="M1062.63 0V502.496" stroke="white" stroke-opacity="0.1"/>
<path opacity="0.25" d="M1085.47 0V502.496" stroke="white" stroke-opacity="0.1"/>
<path opacity="0.25" d="M1108.31 0V502.496" stroke="white" stroke-opacity="0.1"/>
<path opacity="0.25" d="M1131.16 0V502.496" stroke="white" stroke-opacity="0.1"/>
<path opacity="0.25" d="M1154 0V502.496" stroke="white" stroke-opacity="0.1"/>
<path opacity="0.25" d="M1177.44 0V502.496" stroke="white" stroke-opacity="0.1"/>
<path opacity="0.25" d="M1199.68 0V502.496" stroke="white" stroke-opacity="0.1"/>
<path opacity="0.25" d="M1222.52 0V502.496" stroke="white" stroke-opacity="0.1"/>
<path opacity="0.25" d="M1245.36 0V502.496" stroke="white" stroke-opacity="0.1"/>
<path opacity="0.25" d="M651.5 0L1268.2 -2.69568e-05" stroke="white" stroke-opacity="0.1"/>
<path opacity="0.25" d="M651.5 22.8408L1268.2 22.8408" stroke="white" stroke-opacity="0.1"/>
<path opacity="0.25" d="M651.5 45.6816L1268.2 45.6816" stroke="white" stroke-opacity="0.1"/>
<path opacity="0.25" d="M651.5 68.5225L1268.2 68.5224" stroke="white" stroke-opacity="0.1"/>
<path opacity="0.25" d="M651.5 91.3628L1268.2 91.3628" stroke="white" stroke-opacity="0.1"/>
<path opacity="0.25" d="M651.5 114.204L1268.2 114.204" stroke="white" stroke-opacity="0.1"/>
<path opacity="0.25" d="M651.5 137.044L1268.2 137.044" stroke="white" stroke-opacity="0.1"/>
<path opacity="0.25" d="M651.5 159.885L1268.2 159.884" stroke="white" stroke-opacity="0.1"/>
<path opacity="0.25" d="M651.5 182.726L1268.2 182.726" stroke="white" stroke-opacity="0.1"/>
<path opacity="0.25" d="M651.5 205.567L1268.2 205.567" stroke="white" stroke-opacity="0.1"/>
<path opacity="0.25" d="M651.5 228.408L1268.2 228.408" stroke="white" stroke-opacity="0.1"/>
<path opacity="0.25" d="M651.5 251.248L1268.2 251.248" stroke="white" stroke-opacity="0.1"/>
<path opacity="0.25" d="M651.5 274.088L1268.2 274.088" stroke="white" stroke-opacity="0.1"/>
<path opacity="0.25" d="M651.5 296.929L1268.2 296.929" stroke="white" stroke-opacity="0.1"/>
<path opacity="0.25" d="M651.5 319.771L1268.2 319.77" stroke="white" stroke-opacity="0.1"/>
<path opacity="0.25" d="M651.5 342.611L1268.2 342.611" stroke="white" stroke-opacity="0.1"/>
<path opacity="0.25" d="M651.5 365.452L1268.2 365.452" stroke="white" stroke-opacity="0.1"/>
<path opacity="0.25" d="M651.5 388.292L1268.2 388.292" stroke="white" stroke-opacity="0.1"/>
<path opacity="0.25" d="M651.5 411.133L1268.2 411.133" stroke="white" stroke-opacity="0.1"/>
<path opacity="0.25" d="M651.5 433.974L1268.2 433.974" stroke="white" stroke-opacity="0.1"/>
<path opacity="0.25" d="M651.5 479.656L1268.2 479.655" stroke="white" stroke-opacity="0.1"/>
<path opacity="0.25" d="M651.5 502.495L1268.2 502.495" stroke="white" stroke-opacity="0.1"/>
<path opacity="0.25" d="M1290.34 0V502.496" stroke="white" stroke-opacity="0.1"/>
<path opacity="0.25" d="M1313.18 0V502.496" stroke="white" stroke-opacity="0.1"/>
<path opacity="0.25" d="M1336.02 0V502.496" stroke="white" stroke-opacity="0.1"/>
<path opacity="0.25" d="M1358.86 0V502.496" stroke="white" stroke-opacity="0.1"/>
<path opacity="0.25" d="M1381.7 0V502.496" stroke="white" stroke-opacity="0.1"/>
<path opacity="0.25" d="M1404.54 0V502.496" stroke="white" stroke-opacity="0.1"/>
<path opacity="0.25" d="M1427.38 0V502.496" stroke="white" stroke-opacity="0.1"/>
<path opacity="0.25" d="M1450.23 0V502.496" stroke="white" stroke-opacity="0.1"/>
<path opacity="0.25" d="M1473.07 0V502.496" stroke="white" stroke-opacity="0.1"/>
<path opacity="0.25" d="M1495.91 0V502.496" stroke="white" stroke-opacity="0.1"/>
<path opacity="0.25" d="M1518.75 0V502.496" stroke="white" stroke-opacity="0.1"/>
<path opacity="0.25" d="M1541.59 0V502.496" stroke="white" stroke-opacity="0.1"/>
<path opacity="0.25" d="M1564.43 0V502.496" stroke="white" stroke-opacity="0.1"/>
<path opacity="0.25" d="M1587.27 0V502.496" stroke="white" stroke-opacity="0.1"/>
<path opacity="0.25" d="M1610.11 0V502.496" stroke="white" stroke-opacity="0.1"/>
<path opacity="0.25" d="M1632.95 0V502.496" stroke="white" stroke-opacity="0.1"/>
<path opacity="0.25" d="M1655.79 0V502.496" stroke="white" stroke-opacity="0.1"/>
<path opacity="0.25" d="M1678.63 0V502.496" stroke="white" stroke-opacity="0.1"/>
<path opacity="0.25" d="M1701.47 0V502.496" stroke="white" stroke-opacity="0.1"/>
<path opacity="0.25" d="M1724.31 0V502.496" stroke="white" stroke-opacity="0.1"/>
<path opacity="0.25" d="M1747.16 0V502.496" stroke="white" stroke-opacity="0.1"/>
<path opacity="0.25" d="M1770 0V502.496" stroke="white" stroke-opacity="0.1"/>
<path opacity="0.25" d="M1793.44 0V502.496" stroke="white" stroke-opacity="0.1"/>
<path opacity="0.25" d="M1815.68 0V502.496" stroke="white" stroke-opacity="0.1"/>
<path opacity="0.25" d="M1838.52 0V502.496" stroke="white" stroke-opacity="0.1"/>
<path opacity="0.25" d="M1861.36 0V502.496" stroke="white" stroke-opacity="0.1"/>
<path opacity="0.25" d="M1267.5 0L1884.2 -2.69568e-05" stroke="white" stroke-opacity="0.1"/>
<path opacity="0.25" d="M1267.5 22.8408L1884.2 22.8408" stroke="white" stroke-opacity="0.1"/>
<path opacity="0.25" d="M1267.5 45.6816L1884.2 45.6816" stroke="white" stroke-opacity="0.1"/>
<path opacity="0.25" d="M1267.5 68.5225L1884.2 68.5224" stroke="white" stroke-opacity="0.1"/>
<path opacity="0.25" d="M1267.5 91.3628L1884.2 91.3628" stroke="white" stroke-opacity="0.1"/>
<path opacity="0.25" d="M1267.5 114.204L1884.2 114.204" stroke="white" stroke-opacity="0.1"/>
<path opacity="0.25" d="M1267.5 137.044L1884.2 137.044" stroke="white" stroke-opacity="0.1"/>
<path opacity="0.25" d="M1267.5 159.885L1884.2 159.884" stroke="white" stroke-opacity="0.1"/>
<path opacity="0.25" d="M1267.5 182.726L1884.2 182.726" stroke="white" stroke-opacity="0.1"/>
<path opacity="0.25" d="M1267.5 205.567L1884.2 205.567" stroke="white" stroke-opacity="0.1"/>
<path opacity="0.25" d="M1267.5 228.408L1884.2 228.408" stroke="white" stroke-opacity="0.1"/>
<path opacity="0.25" d="M1267.5 251.248L1884.2 251.248" stroke="white" stroke-opacity="0.1"/>
<path opacity="0.25" d="M1267.5 274.088L1884.2 274.088" stroke="white" stroke-opacity="0.1"/>
<path opacity="0.25" d="M1267.5 296.929L1884.2 296.929" stroke="white" stroke-opacity="0.1"/>
<path opacity="0.25" d="M1267.5 319.771L1884.2 319.77" stroke="white" stroke-opacity="0.1"/>
<path opacity="0.25" d="M1267.5 342.611L1884.2 342.611" stroke="white" stroke-opacity="0.1"/>
<path opacity="0.25" d="M1267.5 365.452L1884.2 365.452" stroke="white" stroke-opacity="0.1"/>
<path opacity="0.25" d="M1267.5 388.292L1884.2 388.292" stroke="white" stroke-opacity="0.1"/>
<path opacity="0.25" d="M1267.5 411.133L1884.2 411.133" stroke="white" stroke-opacity="0.1"/>
<path opacity="0.25" d="M1267.5 433.974L1884.2 433.974" stroke="white" stroke-opacity="0.1"/>
<path opacity="0.25" d="M1267.5 479.656L1884.2 479.655" stroke="white" stroke-opacity="0.1"/>
<path opacity="0.25" d="M1267.5 502.495L1884.2 502.495" stroke="white" stroke-opacity="0.1"/>
<path opacity="0.25" d="M58.3406 1004.99V1507.49" stroke="white" stroke-opacity="0.1"/>
<path opacity="0.25" d="M81.1814 1004.99V1507.49" stroke="white" stroke-opacity="0.1"/>
<path opacity="0.25" d="M104.022 1004.99V1507.49" stroke="white" stroke-opacity="0.1"/>
<path opacity="0.25" d="M126.863 1004.99V1507.49" stroke="white" stroke-opacity="0.1"/>
<path opacity="0.25" d="M149.704 1004.99V1507.49" stroke="white" stroke-opacity="0.1"/>
<path opacity="0.25" d="M172.544 1004.99V1507.49" stroke="white" stroke-opacity="0.1"/>
<path opacity="0.25" d="M195.385 1004.99V1507.49" stroke="white" stroke-opacity="0.1"/>
<path opacity="0.25" d="M218.226 1004.99V1507.49" stroke="white" stroke-opacity="0.1"/>
<path opacity="0.25" d="M241.066 1004.99V1507.49" stroke="white" stroke-opacity="0.1"/>
<path opacity="0.25" d="M263.907 1004.99V1507.49" stroke="white" stroke-opacity="0.1"/>
<path opacity="0.25" d="M286.748 1004.99V1507.49" stroke="white" stroke-opacity="0.1"/>
<path opacity="0.25" d="M309.589 1004.99V1507.49" stroke="white" stroke-opacity="0.1"/>
<path opacity="0.25" d="M332.429 1004.99V1507.49" stroke="white" stroke-opacity="0.1"/>
<path opacity="0.25" d="M355.271 1004.99V1507.49" stroke="white" stroke-opacity="0.1"/>
<path opacity="0.25" d="M378.111 1004.99V1507.49" stroke="white" stroke-opacity="0.1"/>
<path opacity="0.25" d="M400.952 1004.99V1507.49" stroke="white" stroke-opacity="0.1"/>
<path opacity="0.25" d="M423.792 1004.99V1507.49" stroke="white" stroke-opacity="0.1"/>
<path opacity="0.25" d="M446.633 1004.99V1507.49" stroke="white" stroke-opacity="0.1"/>
<path opacity="0.25" d="M469.474 1004.99V1507.49" stroke="white" stroke-opacity="0.1"/>
<path opacity="0.25" d="M492.315 1004.99V1507.49" stroke="white" stroke-opacity="0.1"/>
<path opacity="0.25" d="M515.156 1004.99V1507.49" stroke="white" stroke-opacity="0.1"/>
<path opacity="0.25" d="M537.996 1004.99V1507.49" stroke="white" stroke-opacity="0.1"/>
<path opacity="0.25" d="M561.441 1004.99V1507.49" stroke="white" stroke-opacity="0.1"/>
<path opacity="0.25" d="M583.677 1004.99V1507.49" stroke="white" stroke-opacity="0.1"/>
<path opacity="0.25" d="M606.518 1004.99V1507.49" stroke="white" stroke-opacity="0.1"/>
<path opacity="0.25" d="M629.359 1004.99V1507.49" stroke="white" stroke-opacity="0.1"/>
<path opacity="0.25" d="M35.5 1004.99L652.199 1004.99" stroke="white" stroke-opacity="0.1"/>
<path opacity="0.25" d="M35.5 1027.83L652.199 1027.83" stroke="white" stroke-opacity="0.1"/>
<path opacity="0.25" d="M35.5 1050.67L652.199 1050.67" stroke="white" stroke-opacity="0.1"/>
<path opacity="0.25" d="M35.5 1073.51L652.199 1073.51" stroke="white" stroke-opacity="0.1"/>
<path opacity="0.25" d="M58.3406 502.496V1004.99" stroke="white" stroke-opacity="0.1"/>
<path opacity="0.25" d="M81.1814 502.496V1004.99" stroke="white" stroke-opacity="0.1"/>
<path opacity="0.25" d="M104.022 502.496V1004.99" stroke="white" stroke-opacity="0.1"/>
<path opacity="0.25" d="M126.863 502.496V1004.99" stroke="white" stroke-opacity="0.1"/>
<path opacity="0.25" d="M149.704 502.496V1004.99" stroke="white" stroke-opacity="0.1"/>
<path opacity="0.25" d="M172.544 502.496V1004.99" stroke="white" stroke-opacity="0.1"/>
<path opacity="0.25" d="M195.385 502.496V1004.99" stroke="white" stroke-opacity="0.1"/>
<path opacity="0.25" d="M218.226 502.496V1004.99" stroke="white" stroke-opacity="0.1"/>
<path opacity="0.25" d="M241.066 502.496V1004.99" stroke="white" stroke-opacity="0.1"/>
<path opacity="0.25" d="M263.907 502.496V1004.99" stroke="white" stroke-opacity="0.1"/>
<path opacity="0.25" d="M286.748 502.496V1004.99" stroke="white" stroke-opacity="0.1"/>
<path opacity="0.25" d="M309.589 502.496V1004.99" stroke="white" stroke-opacity="0.1"/>
<path opacity="0.25" d="M332.429 502.496V1004.99" stroke="white" stroke-opacity="0.1"/>
<path opacity="0.25" d="M355.271 502.496V1004.99" stroke="white" stroke-opacity="0.1"/>
<path opacity="0.25" d="M378.111 502.496V1004.99" stroke="white" stroke-opacity="0.1"/>
<path opacity="0.25" d="M400.952 502.496V1004.99" stroke="white" stroke-opacity="0.1"/>
<path opacity="0.25" d="M423.792 502.496V1004.99" stroke="white" stroke-opacity="0.1"/>
<path opacity="0.25" d="M446.633 502.496V1004.99" stroke="white" stroke-opacity="0.1"/>
<path opacity="0.25" d="M469.474 502.496V1004.99" stroke="white" stroke-opacity="0.1"/>
<path opacity="0.25" d="M492.315 502.496V1004.99" stroke="white" stroke-opacity="0.1"/>
<path opacity="0.25" d="M515.156 502.496V1004.99" stroke="white" stroke-opacity="0.1"/>
<path opacity="0.25" d="M537.996 502.496V1004.99" stroke="white" stroke-opacity="0.1"/>
<path opacity="0.25" d="M561.441 502.496V1004.99" stroke="white" stroke-opacity="0.1"/>
<path opacity="0.25" d="M583.677 502.496V1004.99" stroke="white" stroke-opacity="0.1"/>
<path opacity="0.25" d="M606.518 502.496V1004.99" stroke="white" stroke-opacity="0.1"/>
<path opacity="0.25" d="M629.359 502.496V1004.99" stroke="white" stroke-opacity="0.1"/>
<path opacity="0.25" d="M35.5 502.496L652.199 502.496" stroke="white" stroke-opacity="0.1"/>
<path opacity="0.25" d="M35.5 525.337L652.199 525.337" stroke="white" stroke-opacity="0.1"/>
<path opacity="0.25" d="M35.5 548.177L652.199 548.177" stroke="white" stroke-opacity="0.1"/>
<path opacity="0.25" d="M35.5 571.018L652.199 571.018" stroke="white" stroke-opacity="0.1"/>
<path opacity="0.25" d="M35.5 593.859L652.199 593.859" stroke="white" stroke-opacity="0.1"/>
<path opacity="0.25" d="M35.5 616.699L652.199 616.699" stroke="white" stroke-opacity="0.1"/>
<path opacity="0.25" d="M35.5 639.54L652.199 639.54" stroke="white" stroke-opacity="0.1"/>
<path opacity="0.25" d="M35.5 662.38L652.199 662.38" stroke="white" stroke-opacity="0.1"/>
<path opacity="0.25" d="M35.5 685.222L652.199 685.222" stroke="white" stroke-opacity="0.1"/>
<path opacity="0.25" d="M35.5 708.063L652.199 708.063" stroke="white" stroke-opacity="0.1"/>
<path opacity="0.25" d="M35.5 730.904L652.199 730.904" stroke="white" stroke-opacity="0.1"/>
<path opacity="0.25" d="M35.5 753.744L652.199 753.744" stroke="white" stroke-opacity="0.1"/>
<path opacity="0.25" d="M35.5 776.584L652.199 776.584" stroke="white" stroke-opacity="0.1"/>
<path opacity="0.25" d="M35.5 799.425L652.199 799.425" stroke="white" stroke-opacity="0.1"/>
<path opacity="0.25" d="M35.5 822.266L652.199 822.266" stroke="white" stroke-opacity="0.1"/>
<path opacity="0.25" d="M35.5 845.107L652.199 845.107" stroke="white" stroke-opacity="0.1"/>
<path opacity="0.25" d="M35.5 867.948L652.199 867.948" stroke="white" stroke-opacity="0.1"/>
<path opacity="0.25" d="M35.5 890.788L652.199 890.788" stroke="white" stroke-opacity="0.1"/>
<path opacity="0.25" d="M35.5 913.629L652.199 913.629" stroke="white" stroke-opacity="0.1"/>
<path opacity="0.25" d="M35.5 936.469L652.199 936.469" stroke="white" stroke-opacity="0.1"/>
<path opacity="0.25" d="M35.5 982.151L652.199 982.151" stroke="white" stroke-opacity="0.1"/>
<path opacity="0.25" d="M35.5 1004.99L652.199 1004.99" stroke="white" stroke-opacity="0.1"/>
<path opacity="0.25" d="M58.3406 0V502.496" stroke="white" stroke-opacity="0.1"/>
<path opacity="0.25" d="M81.1814 0V502.496" stroke="white" stroke-opacity="0.1"/>
<path opacity="0.25" d="M104.022 0V502.496" stroke="white" stroke-opacity="0.1"/>
<path opacity="0.25" d="M126.863 0V502.496" stroke="white" stroke-opacity="0.1"/>
<path opacity="0.25" d="M149.704 0V502.496" stroke="white" stroke-opacity="0.1"/>
<path opacity="0.25" d="M172.544 0V502.496" stroke="white" stroke-opacity="0.1"/>
<path opacity="0.25" d="M195.385 0V502.496" stroke="white" stroke-opacity="0.1"/>
<path opacity="0.25" d="M218.226 0V502.496" stroke="white" stroke-opacity="0.1"/>
<path opacity="0.25" d="M241.066 0V502.496" stroke="white" stroke-opacity="0.1"/>
<path opacity="0.25" d="M263.907 0V502.496" stroke="white" stroke-opacity="0.1"/>
<path opacity="0.25" d="M286.748 0V502.496" stroke="white" stroke-opacity="0.1"/>
<path opacity="0.25" d="M309.589 0V502.496" stroke="white" stroke-opacity="0.1"/>
<path opacity="0.25" d="M332.429 0V502.496" stroke="white" stroke-opacity="0.1"/>
<path opacity="0.25" d="M355.271 0V502.496" stroke="white" stroke-opacity="0.1"/>
<path opacity="0.25" d="M378.111 0V502.496" stroke="white" stroke-opacity="0.1"/>
<path opacity="0.25" d="M400.952 0V502.496" stroke="white" stroke-opacity="0.1"/>
<path opacity="0.25" d="M423.792 0V502.496" stroke="white" stroke-opacity="0.1"/>
<path opacity="0.25" d="M446.633 0V502.496" stroke="white" stroke-opacity="0.1"/>
<path opacity="0.25" d="M469.474 0V502.496" stroke="white" stroke-opacity="0.1"/>
<path opacity="0.25" d="M492.315 0V502.496" stroke="white" stroke-opacity="0.1"/>
<path opacity="0.25" d="M515.156 0V502.496" stroke="white" stroke-opacity="0.1"/>
<path opacity="0.25" d="M537.996 0V502.496" stroke="white" stroke-opacity="0.1"/>
<path opacity="0.25" d="M561.441 0V502.496" stroke="white" stroke-opacity="0.1"/>
<path opacity="0.25" d="M583.677 0V502.496" stroke="white" stroke-opacity="0.1"/>
<path opacity="0.25" d="M606.518 0V502.496" stroke="white" stroke-opacity="0.1"/>
<path opacity="0.25" d="M629.359 0V502.496" stroke="white" stroke-opacity="0.1"/>
<path opacity="0.25" d="M35.5 0L652.199 -2.69568e-05" stroke="white" stroke-opacity="0.1"/>
<path opacity="0.25" d="M35.5 22.8408L652.199 22.8408" stroke="white" stroke-opacity="0.1"/>
<path opacity="0.25" d="M35.5 45.6816L652.199 45.6816" stroke="white" stroke-opacity="0.1"/>
<path opacity="0.25" d="M35.5 68.5225L652.199 68.5224" stroke="white" stroke-opacity="0.1"/>
<path opacity="0.25" d="M35.5 91.3628L652.199 91.3628" stroke="white" stroke-opacity="0.1"/>
<path opacity="0.25" d="M35.5 114.204L652.199 114.204" stroke="white" stroke-opacity="0.1"/>
<path opacity="0.25" d="M35.5 137.044L652.199 137.044" stroke="white" stroke-opacity="0.1"/>
<path opacity="0.25" d="M35.5 159.885L652.199 159.884" stroke="white" stroke-opacity="0.1"/>
<path opacity="0.25" d="M35.5 182.726L652.199 182.726" stroke="white" stroke-opacity="0.1"/>
<path opacity="0.25" d="M35.5 205.567L652.199 205.567" stroke="white" stroke-opacity="0.1"/>
<path opacity="0.25" d="M35.5 228.408L652.199 228.408" stroke="white" stroke-opacity="0.1"/>
<path opacity="0.25" d="M35.5 251.248L652.199 251.248" stroke="white" stroke-opacity="0.1"/>
<path opacity="0.25" d="M35.5 274.088L652.199 274.088" stroke="white" stroke-opacity="0.1"/>
<path opacity="0.25" d="M35.5 296.929L652.199 296.929" stroke="white" stroke-opacity="0.1"/>
<path opacity="0.25" d="M35.5 319.771L652.199 319.77" stroke="white" stroke-opacity="0.1"/>
<path opacity="0.25" d="M35.5 342.611L652.199 342.611" stroke="white" stroke-opacity="0.1"/>
<path opacity="0.25" d="M35.5 365.452L652.199 365.452" stroke="white" stroke-opacity="0.1"/>
<path opacity="0.25" d="M35.5 388.292L652.199 388.292" stroke="white" stroke-opacity="0.1"/>
<path opacity="0.25" d="M35.5 411.133L652.199 411.133" stroke="white" stroke-opacity="0.1"/>
<path opacity="0.25" d="M35.5 433.974L652.199 433.974" stroke="white" stroke-opacity="0.1"/>
<path opacity="0.25" d="M35.5 479.656L652.199 479.655" stroke="white" stroke-opacity="0.1"/>
<path opacity="0.25" d="M35.5 502.495L652.199 502.495" stroke="white" stroke-opacity="0.1"/>
</g>
<defs>
<clipPath id="clip0_23067_191">
<rect width="1920" height="1082" fill="white"/>
</clipPath>
</defs>
</svg>
