<svg width="335" height="140" viewBox="0 0 335 140" fill="none" xmlns="http://www.w3.org/2000/svg">
<g clip-path="url(#clip0_23205_190)">
<path d="M0 137.132C0 130.917 0.668617 125.36 2.00585 120.461C3.44595 115.561 5.2975 111.14 7.56049 107.196C9.92641 103.252 12.498 99.6076 15.2753 96.2612C18.1555 92.9148 21.0871 89.6287 24.0702 86.4021C31.5793 78.276 36.8768 70.9264 39.9627 64.3534C43.1515 57.7806 44.7459 51.2676 44.7459 44.8144C44.7459 40.9902 44.3344 37.2856 43.5115 33.7004C42.6886 30.1153 41.197 27.1873 39.0369 24.9168C36.8768 22.5267 33.8423 21.3914 29.9334 21.5109C27.1561 21.5109 24.6359 22.2877 22.3729 23.8413C20.2128 25.2753 18.567 27.0081 17.4354 29.0397C18.567 30.3542 19.3385 31.9078 19.7499 33.7004C20.2642 35.493 20.5214 37.0465 20.5214 38.3611C20.5214 39.6756 20.1614 41.2889 19.4413 43.201C18.7213 44.9936 17.5897 46.5471 16.0468 47.8617C14.6067 49.1763 12.6009 49.8336 10.0292 49.8336C6.84049 49.5945 4.37172 48.2203 2.62304 45.7106C0.97721 43.201 0.154297 40.2134 0.154297 36.7478C0.154297 33.9991 0.874343 31.0713 2.31444 27.9642C3.75454 24.7375 5.91469 21.6902 8.79486 18.8221C11.6751 15.8344 15.1725 13.4443 19.287 11.6518C23.5045 9.73966 28.3391 8.78364 33.7908 8.78364C37.9054 8.78364 41.9685 9.38114 45.9802 10.5762C50.0948 11.7712 53.8493 13.6833 57.2438 16.3124C60.6386 18.9415 63.3129 22.4072 65.2675 26.7094C67.3246 31.0115 68.3534 36.3295 68.3534 42.6633C68.3534 45.6509 67.8905 48.8178 66.9647 52.1639C66.039 55.3905 64.3417 58.9757 61.873 62.9194C59.404 66.7435 55.9581 71.1652 51.5349 76.1844C47.1118 81.2036 41.4028 87.0596 34.408 93.7516C28.7505 99.1293 24.5845 104.029 21.91 108.451C19.2356 112.873 17.6412 116.279 17.1269 118.668L47.3689 119.565C49.7348 119.684 51.7407 119.505 53.3864 119.027C55.1352 118.43 56.4724 117.294 57.3981 115.621C58.4268 113.828 58.9411 111.259 58.9411 107.913H68.8163L67.5819 137.132H0ZM125.32 140C117.502 140 110.867 138.088 105.416 134.264C99.9636 130.32 95.5921 125.181 92.3006 118.848C89.0086 112.394 86.5917 105.344 85.0487 97.6953C83.6082 90.0467 82.8886 82.4584 82.8886 74.9296C82.8886 67.4008 83.7625 59.7524 85.5116 51.9847C87.3632 44.2168 90.0887 37.1063 93.6893 30.653C97.2894 24.0802 101.764 18.8221 107.113 14.8784C112.462 10.8152 118.737 8.78364 125.937 8.78364C133.446 8.78364 139.824 10.7555 145.07 14.6991C150.418 18.6428 154.739 23.8413 158.031 30.2945C161.322 36.6283 163.74 43.6193 165.283 51.2676C166.826 58.9159 167.597 66.5045 167.597 74.0333C167.597 81.4424 166.723 89.0314 164.974 96.799C163.328 104.567 160.756 111.737 157.259 118.31C153.762 124.763 149.338 130.021 143.99 134.085C138.744 138.028 132.52 140 125.32 140ZM126.246 127.273C129.846 127.273 132.829 125.958 135.195 123.329C137.561 120.7 139.361 117.115 140.595 112.574C141.932 107.913 142.858 102.595 143.373 96.6197C143.887 90.6447 144.144 84.3707 144.144 77.7977C144.144 70.5077 143.887 63.5169 143.373 56.8246C142.961 50.0128 142.086 43.9778 140.75 38.7196C139.515 33.3419 137.664 29.0994 135.195 25.9923C132.829 22.8852 129.64 21.3317 125.629 21.3317C121.926 21.3317 118.84 22.6462 116.371 25.2753C113.902 27.9044 111.896 31.5493 110.353 36.21C108.913 40.8707 107.885 46.1886 107.267 52.1639C106.65 58.1391 106.342 64.4729 106.342 71.1652C106.342 76.1844 106.444 81.3233 106.65 86.5813C106.959 91.8393 107.473 96.9187 108.193 101.818C109.016 106.599 110.147 110.901 111.588 114.725C113.028 118.549 114.93 121.596 117.297 123.867C119.765 126.138 122.748 127.273 126.246 127.273ZM180.364 137.132C180.364 130.917 181.032 125.36 182.37 120.461C183.81 115.561 185.661 111.14 187.924 107.196C190.29 103.252 192.862 99.6076 195.639 96.2612C198.519 92.9148 201.451 89.6287 204.434 86.4021C211.943 78.276 217.241 70.9264 220.327 64.3534C223.515 57.7806 225.11 51.2676 225.11 44.8144C225.11 40.9902 224.698 37.2856 223.875 33.7004C223.052 30.1153 221.561 27.1873 219.401 24.9168C217.241 22.5267 214.206 21.3914 210.297 21.5109C207.52 21.5109 204.999 22.2877 202.737 23.8413C200.577 25.2753 198.931 27.0081 197.799 29.0397C198.931 30.3542 199.702 31.9078 200.114 33.7004C200.628 35.493 200.885 37.0465 200.885 38.3611C200.885 39.6756 200.525 41.2889 199.805 43.201C199.085 44.9936 197.954 46.5471 196.411 47.8617C194.97 49.1763 192.964 49.8336 190.393 49.8336C187.204 49.5945 184.735 48.2203 182.987 45.7106C181.341 43.201 180.518 40.2134 180.518 36.7478C180.518 33.9991 181.238 31.0713 182.678 27.9642C184.118 24.7375 186.278 21.6902 189.159 18.8221C192.039 15.8344 195.536 13.4443 199.651 11.6518C203.868 9.73966 208.703 8.78364 214.155 8.78364C218.269 8.78364 222.332 9.38114 226.344 10.5762C230.458 11.7712 234.213 13.6833 237.608 16.3124C241.002 18.9415 243.677 22.4072 245.631 26.7094C247.688 31.0115 248.717 36.3295 248.717 42.6633C248.717 45.6509 248.254 48.8178 247.328 52.1639C246.403 55.3905 244.705 58.9757 242.237 62.9194C239.768 66.7435 236.322 71.1652 231.899 76.1844C227.475 81.2036 221.767 87.0596 214.772 93.7516C209.114 99.1293 204.948 104.029 202.274 108.451C199.599 112.873 198.005 116.279 197.491 118.668L227.733 119.565C230.099 119.684 232.104 119.505 233.75 119.027C235.499 118.43 236.836 117.294 237.762 115.621C238.79 113.828 239.305 111.259 239.305 107.913H249.18L247.946 137.132H180.364ZM295.192 140C288.505 140 282.796 138.745 278.065 136.236C273.333 133.726 269.681 130.619 267.11 126.914C264.641 123.09 263.407 119.266 263.407 115.442C263.407 111.976 264.332 108.869 266.184 106.12C268.035 103.372 270.555 101.938 273.744 101.818C276.316 101.698 278.321 102.296 279.762 103.611C281.202 104.806 282.231 106.3 282.848 108.092C283.465 109.885 283.774 111.618 283.774 113.291C283.774 114.246 283.619 115.442 283.311 116.876C283.105 118.19 282.694 119.445 282.076 120.64C282.591 121.955 283.516 123.15 284.854 124.225C286.191 125.181 287.682 125.958 289.328 126.556C291.077 127.034 292.671 127.273 294.112 127.273C298.226 127.273 301.518 126.018 303.986 123.508C306.558 120.999 308.409 117.772 309.541 113.828C310.672 109.885 311.238 105.882 311.238 101.818C311.238 99.0698 311.084 95.9622 310.775 92.4968C310.467 89.0314 309.695 85.6255 308.461 82.2791C307.329 78.9328 305.478 76.1844 302.906 74.0333C300.438 71.8822 297.043 70.8067 292.723 70.8067C291.282 70.8067 289.585 71.0454 287.631 71.5237C285.676 71.8822 283.516 72.5397 281.151 73.4955C278.887 74.4513 276.573 75.7664 274.207 77.4392L267.573 71.5237L266.955 11.6518H306.918C310.518 11.6518 313.347 10.9945 315.404 9.67993C317.565 8.24587 318.645 5.0192 318.645 0H328.365L327.285 29.0397L278.836 30.1153V62.0231C281.202 60.828 284.133 59.8122 287.631 58.9757C291.128 58.1391 294.42 57.7209 297.506 57.7209C303.883 57.7209 309.438 58.7964 314.17 60.9475C318.901 63.0986 322.811 66.0862 325.897 69.9104C328.982 73.6153 331.245 77.9175 332.686 82.8169C334.229 87.5973 335 92.6761 335 98.0538C335 107.255 333.045 115.024 329.137 121.357C325.331 127.572 320.393 132.232 314.324 135.339C308.255 138.446 301.878 140 295.192 140Z" fill="#CECFD2" fill-opacity="0.01"/>
</g>
<defs>
<clipPath id="clip0_23205_190">
<rect width="335" height="140" fill="white"/>
</clipPath>
</defs>
</svg>
