<svg width="1416" height="204" viewBox="0 0 1416 204" fill="none" xmlns="http://www.w3.org/2000/svg">
<g clip-path="url(#clip0_23205_190)">
<path d="M8.99902 415.538C8.99902 393.217 11.789 373.258 17.369 355.661C23.3781 338.063 31.1042 322.181 40.5471 308.016C50.4195 293.852 61.15 280.761 72.7391 268.742C84.7576 256.723 96.9905 244.92 109.438 233.331C140.772 204.144 162.877 177.747 175.754 154.139C189.06 130.531 195.713 107.138 195.713 83.9601C195.713 70.2247 193.996 56.9188 190.562 44.042C187.128 31.1652 180.904 20.649 171.89 12.4939C162.877 3.90918 150.215 -0.168394 133.904 0.260917C122.315 0.260917 111.799 3.05081 102.356 8.63084C93.342 13.7816 86.4745 20.0052 81.7529 27.3022C86.4745 32.0236 89.6937 37.6036 91.4105 44.042C93.5568 50.4804 94.6297 56.0602 94.6297 60.7819C94.6297 65.5033 93.1275 71.2978 90.1228 78.1656C87.1184 84.604 82.3967 90.1837 75.9583 94.9054C69.9492 99.6268 61.5793 101.988 50.8486 101.988C37.5427 101.129 27.2412 96.1931 19.9443 87.1793C13.0767 78.1656 9.64287 67.4348 9.64287 54.9873C9.64287 45.1149 12.6474 34.599 18.6566 23.4392C24.6658 11.85 33.6796 0.904757 45.6978 -9.39668C57.7163 -20.1274 72.3101 -28.7119 89.479 -35.1503C107.077 -42.018 127.251 -45.4517 150 -45.4517C167.169 -45.4517 184.123 -43.3057 200.863 -39.0133C218.032 -34.7212 233.699 -27.8535 247.864 -18.4104C262.029 -8.96762 273.188 3.48012 281.344 18.9323C289.928 34.3844 294.221 53.4849 294.221 76.234C294.221 86.9645 292.29 98.3391 288.427 110.358C284.563 121.947 277.481 134.823 267.18 148.988C256.877 162.723 242.498 178.605 224.042 196.632C205.585 214.66 181.763 235.693 152.575 259.728C128.968 279.044 111.584 296.641 100.424 312.523C89.2644 328.406 82.6115 340.639 80.4652 349.222L206.658 352.441C216.53 352.871 224.9 352.228 231.768 350.51C239.065 348.365 244.644 344.285 248.507 338.277C252.8 331.839 254.946 322.611 254.946 310.592H296.153L291.002 415.538H8.99902ZM531.929 425.839C499.307 425.839 471.622 418.971 448.873 405.236C426.123 391.072 407.882 372.614 394.147 349.866C380.41 326.688 370.325 301.364 363.887 273.893C357.876 246.422 354.873 219.167 354.873 192.125C354.873 165.084 358.52 137.613 365.818 109.714C373.544 81.8138 384.917 56.275 399.942 33.0968C414.964 9.48921 433.635 -9.39668 455.956 -23.5612C478.274 -38.155 504.458 -45.4517 534.504 -45.4517C565.836 -45.4517 592.45 -38.3695 614.34 -24.205C636.659 -10.0405 654.686 8.63084 668.423 31.8091C682.157 54.558 692.245 79.6678 698.683 107.138C705.122 134.609 708.341 161.865 708.341 188.906C708.341 215.517 704.692 242.775 697.396 270.674C690.527 298.573 679.796 324.326 665.204 347.935C650.609 371.113 632.152 389.998 609.833 404.592C587.943 418.757 561.973 425.839 531.929 425.839ZM535.792 380.127C550.814 380.127 563.261 375.406 573.135 365.962C583.006 356.518 590.518 343.641 595.669 327.332C601.247 310.592 605.11 291.49 607.258 270.03C609.403 248.569 610.477 226.035 610.477 202.427C610.477 176.243 609.403 151.134 607.258 127.097C605.54 102.631 601.891 80.9555 596.313 62.0696C591.162 42.7544 583.436 27.5167 573.135 16.3569C563.261 5.19686 549.956 -0.38292 533.217 -0.38292C517.764 -0.38292 504.888 4.33849 494.586 13.7816C484.285 23.2244 475.915 36.316 469.476 53.0558C463.466 69.7956 459.175 88.8961 456.6 110.358C454.024 131.819 452.737 154.568 452.737 178.605C452.737 196.632 453.164 215.09 454.024 233.975C455.312 252.86 457.457 271.104 460.463 288.701C463.896 305.871 468.616 321.323 474.627 335.058C480.635 348.792 488.575 359.737 498.449 367.894C508.751 376.05 521.197 380.127 535.792 380.127ZM761.614 415.538C761.614 393.217 764.403 373.258 769.984 355.661C775.992 338.063 783.718 322.181 793.162 308.016C803.033 293.852 813.765 280.761 825.354 268.742C837.371 256.723 849.604 244.92 862.053 233.331C893.385 204.144 915.491 177.747 928.368 154.139C941.673 130.531 948.327 107.138 948.327 83.9601C948.327 70.2247 946.61 56.9188 943.177 44.042C939.741 31.1652 933.519 20.649 924.505 12.4939C915.492 3.90918 902.828 -0.168394 886.519 0.260917C874.93 0.260917 864.412 3.05081 854.971 8.63084C845.957 13.7816 839.088 20.0052 834.368 27.3022C839.088 32.0236 842.308 37.6036 844.025 44.042C846.171 50.4804 847.244 56.0602 847.244 60.7819C847.244 65.5033 845.741 71.2978 842.738 78.1656C839.732 84.604 835.011 90.1837 828.573 94.9054C822.562 99.6268 814.192 101.988 803.463 101.988C790.156 101.129 779.855 96.1931 772.559 87.1793C765.691 78.1656 762.258 67.4348 762.258 54.9873C762.258 45.1149 765.26 34.599 771.271 23.4392C777.28 11.85 786.293 0.904757 798.313 -9.39668C810.329 -20.1274 824.924 -28.7119 842.094 -35.1503C859.691 -42.018 879.864 -45.4517 902.615 -45.4517C919.782 -45.4517 936.738 -43.3057 953.478 -39.0133C970.645 -34.7212 986.314 -27.8535 1000.48 -18.4104C1014.64 -8.96762 1025.8 3.48012 1033.96 18.9323C1042.54 34.3844 1046.83 53.4849 1046.83 76.234C1046.83 86.9645 1044.9 98.3391 1041.04 110.358C1037.18 121.947 1030.1 134.823 1019.79 148.988C1009.49 162.723 995.111 178.605 976.656 196.632C958.199 214.66 934.377 235.693 905.19 259.728C881.582 279.044 864.198 296.641 853.039 312.523C841.877 328.406 835.225 340.639 833.08 349.222L959.273 352.441C969.144 352.871 977.514 352.228 984.382 350.51C991.678 348.365 997.259 344.285 1001.12 338.277C1005.41 331.839 1007.56 322.611 1007.56 310.592H1048.77L1043.62 415.538H761.614ZM1240.76 425.839C1212.86 425.839 1189.04 421.332 1169.3 412.319C1149.55 403.305 1134.31 392.146 1123.58 378.839C1113.28 365.104 1108.13 351.368 1108.13 337.633C1108.13 325.186 1111.99 314.025 1119.72 304.153C1127.45 294.282 1137.96 289.131 1151.27 288.701C1162 288.271 1170.37 290.419 1176.38 295.14C1182.39 299.433 1186.68 304.797 1189.25 311.236C1191.83 317.674 1193.12 323.899 1193.12 329.907C1193.12 333.34 1192.47 337.633 1191.19 342.784C1190.33 347.504 1188.61 352.011 1186.04 356.304C1188.18 361.025 1192.04 365.318 1197.62 369.181C1203.2 372.614 1209.43 375.406 1216.3 377.551C1223.59 379.269 1230.24 380.127 1236.25 380.127C1253.42 380.127 1267.16 375.62 1277.46 366.606C1288.19 357.592 1295.92 346.003 1300.64 331.839C1305.36 317.674 1307.72 303.296 1307.72 288.701C1307.72 278.83 1307.08 267.668 1305.79 255.222C1304.5 242.775 1301.28 230.542 1296.13 218.523C1291.41 206.503 1283.68 196.632 1272.95 188.906C1262.65 181.18 1248.49 177.317 1230.46 177.317C1224.45 177.317 1217.37 178.175 1209.21 179.892C1201.06 181.18 1192.04 183.542 1182.17 186.975C1172.73 190.407 1163.07 195.131 1153.2 201.139L1125.51 179.892L1122.94 -35.1503H1289.69C1304.72 -35.1503 1316.52 -37.5111 1325.1 -42.2325C1334.12 -47.3832 1338.63 -58.9725 1338.63 -77H1379.19L1374.68 27.3022L1172.51 31.1652V145.769C1182.39 141.476 1194.62 137.828 1209.21 134.823C1223.81 131.819 1237.54 130.317 1250.42 130.317C1277.03 130.317 1300.21 134.18 1319.95 141.906C1339.7 149.632 1356.01 160.362 1368.89 174.098C1381.76 187.405 1391.2 202.857 1397.21 220.454C1403.65 237.624 1406.87 255.865 1406.87 275.181C1406.87 308.23 1398.72 336.132 1382.41 358.88C1366.52 381.2 1345.92 397.94 1320.6 409.099C1295.27 420.258 1268.66 425.839 1240.76 425.839Z" fill="#CECFD2" fill-opacity="0.01"/>
</g>
<defs>
<clipPath id="clip0_23205_190">
<rect width="1416" height="204" fill="white"/>
</clipPath>
</defs>
</svg>
