<svg width="24" height="24" viewBox="0 0 24 24" fill="none" xmlns="http://www.w3.org/2000/svg">
<path d="M13.5005 7.49812C12.8335 6.79783 12.8335 5.69738 13.5005 4.99708C14.1674 4.29679 14.1674 3.19633 13.5005 2.49604M9.99901 7.49812C9.33207 6.79783 9.33207 5.69738 9.99901 4.99708C10.6659 4.29679 10.6659 3.19633 9.99901 2.49604M6.49755 7.49812C5.8306 6.79783 5.8306 5.69737 6.49755 4.99708C7.16449 4.29679 7.16449 3.19633 6.49755 2.49604M16.1294 17.6173L17.9759 17.1947C19.7475 16.7893 21.0036 15.2133 21.0036 13.3959C21.0036 12.6277 20.6984 11.891 20.1552 11.3478C19.612 10.8045 18.8753 10.4994 18.107 10.4994H15.5013M3.99651 10.4994H16.0015C16.554 10.4994 17.0019 10.9473 17.0019 11.4998V14.501C17.0019 17.8161 14.3145 20.5035 10.9994 20.5035H8.99859C5.6835 20.5035 2.99609 17.8161 2.99609 14.501V11.4998C2.99609 10.9473 3.444 10.4994 3.99651 10.4994Z" stroke="#94979C" stroke-width="1.5" stroke-linecap="round" stroke-linejoin="round"/>
</svg>
