<svg width="12" height="12" viewBox="0 0 12 12" fill="none" xmlns="http://www.w3.org/2000/svg">
<path fill-rule="evenodd" clip-rule="evenodd" d="M6 6C6 5.06802 6.75552 4.3125 7.6875 4.3125C8.61948 4.3125 9.375 5.06802 9.375 6C9.375 6.93198 8.61948 7.6875 7.6875 7.6875C6.75552 7.6875 6 6.93198 6 6Z" fill="#00B6FF"/>
<path fill-rule="evenodd" clip-rule="evenodd" d="M2.625 9.375C2.625 8.44302 3.38052 7.6875 4.3125 7.6875H6V9.375C6 10.307 5.24448 11.0625 4.3125 11.0625C3.38052 11.0625 2.625 10.307 2.625 9.375Z" fill="#24CB71"/>
<path fill-rule="evenodd" clip-rule="evenodd" d="M6 0.9375V4.3125H7.6875C8.61948 4.3125 9.375 3.55698 9.375 2.625C9.375 1.69302 8.61948 0.9375 7.6875 0.9375H6Z" fill="#FF7237"/>
<path fill-rule="evenodd" clip-rule="evenodd" d="M2.625 2.625C2.625 3.55698 3.38052 4.3125 4.3125 4.3125H6V0.9375H4.3125C3.38052 0.9375 2.625 1.69302 2.625 2.625Z" fill="#FF3737"/>
<path fill-rule="evenodd" clip-rule="evenodd" d="M2.625 6C2.625 6.93198 3.38052 7.6875 4.3125 7.6875H6V4.3125H4.3125C3.38052 4.3125 2.625 5.06802 2.625 6Z" fill="#874FFF"/>
</svg>
