<svg width="12" height="12" viewBox="0 0 12 12" fill="none" xmlns="http://www.w3.org/2000/svg">
<g clip-path="url(#clip0_23127_179)">
<path d="M5.96035 0.5C3.16786 0.5 3.34224 1.71733 3.34224 1.71733L3.34536 2.97847H6.01016V3.35712H2.28691C2.28691 3.35712 0.5 3.15341 0.5 5.9858C0.5 8.81819 2.05965 8.71775 2.05965 8.71775H2.99047V7.40341C2.99047 7.40341 2.94029 5.83559 4.52522 5.83559H7.16822C7.16822 5.83559 8.65316 5.85972 8.65316 4.39295V1.96768C8.65316 1.96768 8.87862 0.5 5.96035 0.5ZM4.49097 1.34806C4.7561 1.34806 4.97039 1.56347 4.97039 1.82999C4.97039 2.0965 4.7561 2.31191 4.49097 2.31191C4.22584 2.31191 4.01156 2.0965 4.01156 1.82999C4.01156 1.56347 4.22584 1.34806 4.49097 1.34806Z" fill="url(#paint0_linear_23127_179)"/>
<path d="M6.03965 11.5C8.83214 11.5 8.65776 10.2827 8.65776 10.2827L8.65464 9.02153H5.98984V8.64288H9.71309C9.71309 8.64288 11.5 8.84659 11.5 6.0142C11.5 3.18181 9.94035 3.28225 9.94035 3.28225H9.00953V4.59659C9.00953 4.59659 9.05971 6.16441 7.47478 6.16441H4.83178C4.83178 6.16441 3.34684 6.14028 3.34684 7.60705V10.0323C3.34684 10.0323 3.12138 11.5 6.03965 11.5ZM7.50903 10.6519C7.2439 10.6519 7.02961 10.4365 7.02961 10.17C7.02961 9.9035 7.2439 9.68809 7.50903 9.68809C7.77416 9.68809 7.98844 9.9035 7.98844 10.17C7.98844 10.4365 7.77416 10.6519 7.50903 10.6519Z" fill="url(#paint1_linear_23127_179)"/>
</g>
<defs>
<linearGradient id="paint0_linear_23127_179" x1="143.053" y1="132.933" x2="876.527" y2="860.709" gradientUnits="userSpaceOnUse">
<stop stop-color="#387EB8"/>
<stop offset="1" stop-color="#366994"/>
</linearGradient>
<linearGradient id="paint1_linear_23127_179" x1="159.37" y1="172.405" x2="747.655" y2="725.633" gradientUnits="userSpaceOnUse">
<stop stop-color="#FFE052"/>
<stop offset="1" stop-color="#FFC331"/>
</linearGradient>
<clipPath id="clip0_23127_179">
<rect width="12" height="12" fill="white"/>
</clipPath>
</defs>
</svg>
