<svg width="12" height="12" viewBox="0 0 12 12" fill="none" xmlns="http://www.w3.org/2000/svg">
<path d="M6 2.51001C4.4 2.51001 3.4 3.28577 3 4.83728C3.6 4.06152 4.3 3.77062 5.1 3.96456C5.55644 4.07521 5.88269 4.39631 6.2438 4.75176C6.83207 5.33077 7.51291 6.00092 9 6.00092C10.6 6.00092 11.6 5.22516 12 3.67365C11.4 4.4494 10.7 4.74031 9.9 4.54637C9.44356 4.43572 9.11731 4.11462 8.7562 3.75917C8.16793 3.18016 7.48709 2.51001 6 2.51001ZM3 6.00092C1.4 6.00092 0.4 6.77668 0 8.32819C0.6 7.55243 1.3 7.26152 2.1 7.45546C2.55644 7.56612 2.88269 7.88722 3.2438 8.24266C3.83207 8.82168 4.51291 9.49183 6 9.49183C7.6 9.49183 8.6 8.71607 9 7.16456C8.4 7.94031 7.7 8.23122 6.9 8.03728C6.44356 7.92663 6.11731 7.60553 5.7562 7.25008C5.16793 6.67107 4.48709 6.00092 3 6.00092Z" fill="url(#paint0_linear_23114_104)"/>
<defs>
<linearGradient id="paint0_linear_23114_104" x1="-4.87894e-08" y1="6" x2="10.6819" y2="9.7523" gradientUnits="userSpaceOnUse">
<stop stop-color="#2298BD"/>
<stop offset="1" stop-color="#0ED7B5"/>
</linearGradient>
</defs>
</svg>
