<svg width="12" height="12" viewBox="0 0 12 12" fill="none" xmlns="http://www.w3.org/2000/svg">
<g clip-path="url(#clip0_23114_5)">
<path d="M0 12H12V0H0V12Z" fill="#007ACC"/>
<path d="M2.65365 6.0398L2.64984 6.53123H4.21174V10.9693H5.31651V6.53123H6.87841V6.04933C6.87841 5.78266 6.8727 5.5598 6.86508 5.55409C6.85936 5.54647 5.90889 5.54266 4.75651 5.54456L2.65936 5.55028L2.65365 6.0398Z" fill="white"/>
<path d="M9.68281 5.53633C9.98757 5.61252 10.22 5.74776 10.4333 5.96871C10.5438 6.0868 10.7076 6.30204 10.7209 6.35347C10.7247 6.36871 10.2028 6.71919 9.88662 6.91538C9.87519 6.923 9.82948 6.87347 9.77805 6.79728C9.62376 6.57252 9.46186 6.47538 9.21424 6.45823C8.85043 6.43347 8.61614 6.62395 8.61805 6.94204C8.61805 7.03538 8.63138 7.09061 8.66948 7.16681C8.74948 7.33252 8.89805 7.43157 9.36472 7.63347C10.2238 8.003 10.5914 8.2468 10.82 8.59347C11.0752 8.98014 11.1323 9.59728 10.959 10.0563C10.7685 10.5554 10.2961 10.8944 9.63138 11.0068C9.42567 11.043 8.93805 11.0373 8.7171 10.9973C8.23519 10.9116 7.77805 10.6735 7.49614 10.3611C7.38567 10.2392 7.17043 9.92109 7.18376 9.89823C7.18948 9.89061 7.239 9.86014 7.29424 9.82776C7.34757 9.79728 7.54948 9.68109 7.73995 9.57061L8.08472 9.37061L8.1571 9.47728C8.25805 9.63157 8.479 9.843 8.61234 9.91347C8.99519 10.1154 9.52091 10.0868 9.77995 9.85442C9.89043 9.75347 9.93614 9.64871 9.93614 9.49442C9.93614 9.35538 9.919 9.29442 9.84662 9.18966C9.75329 9.05633 9.56281 8.94395 9.02186 8.70966C8.40281 8.44299 8.13614 8.27728 7.89233 8.01442C7.75138 7.86204 7.61805 7.61823 7.56281 7.41442C7.5171 7.2449 7.50567 6.82014 7.54186 6.64871C7.66948 6.05061 8.12091 5.63347 8.77234 5.50966C8.98376 5.46966 9.47519 5.4849 9.68281 5.53633Z" fill="white"/>
</g>
<defs>
<clipPath id="clip0_23114_5">
<rect width="12" height="12" fill="white"/>
</clipPath>
</defs>
</svg>
